<svg xmlns="http://www.w3.org/2000/svg" width="19.853" height="20.605" viewBox="0 0 19.853 20.605">
  <g id="Layer_x0020_1" transform="translate(8.89 23.35)">
    <path id="Path_7483" data-name="Path 7483" d="M-7.146-2.883A2.722,2.722,0,0,1-8.89-5.525v-9.494a.433.433,0,0,1,.867,0v9.494a2.11,2.11,0,0,0,.457,1.338,1.379,1.379,0,0,0,1.057.536H-6.5a1.379,1.379,0,0,0,1.057-.536,2.11,2.11,0,0,0,.457-1.339v-16.41A1.417,1.417,0,0,1-3.574-23.35H9.548a1.417,1.417,0,0,1,1.415,1.415v16.02A3.136,3.136,0,0,1,7.829-2.783c-1.511,0-14.7.135-14.975-.1ZM8.974-15.876H3.733a.236.236,0,0,1-.236-.236v-3.6a.236.236,0,0,1,.236-.236h5.24a.236.236,0,0,1,.236.236v3.6A.235.235,0,0,1,8.974-15.876Zm-5-.473H8.737v-3.127H3.97ZM1.545-19.4H-2.231a.236.236,0,0,1,0-.473H1.545A.236.236,0,0,1,1.545-19.4Zm0,1.724H-2.231a.236.236,0,0,1,0-.473H1.545A.236.236,0,0,1,1.545-17.675Zm-.534,1.724H-2.231a.236.236,0,0,1,0-.473H1.012A.236.236,0,0,1,1.012-15.951Zm2,6.023h-5.24a.236.236,0,0,1-.236-.236v-3.6A.235.235,0,0,1-2.231-14H3.01a.236.236,0,0,1,.236.236v3.6A.236.236,0,0,1,3.01-9.928Zm-5-.473H2.773v-3.127H-1.994ZM8.974-10H5.2a.236.236,0,0,1,0-.473H8.974A.236.236,0,0,1,8.974-10Zm0-1.724H5.2a.236.236,0,0,1,0-.473H8.974A.236.236,0,0,1,8.974-11.727Zm0-1.725H5.731a.236.236,0,0,1,0-.473H8.974A.236.236,0,0,1,8.974-13.453ZM8.708-7.771H-2a.236.236,0,0,1,0-.473H8.708A.236.236,0,0,1,8.708-7.771ZM7.948-5.6H-1.246a.236.236,0,0,1,0-.473H7.948A.236.236,0,0,1,7.948-5.6Z" fill="#d8d8d8" fill-rule="evenodd"/>
    <path id="Path_7484" data-name="Path 7484" d="M166.183,557.668a.434.434,0,0,1-.433-.433V546.005a.433.433,0,0,1,.867,0v11.229A.434.434,0,0,1,166.183,557.668Z" transform="translate(-172.531 -562.059)" fill="#d8d8d8" fill-rule="evenodd"/>
  </g>
</svg>
