<?xml version="1.0" encoding="utf-8"?>
<!-- Generator: Adobe Illustrator 28.0.0, SVG Export Plug-In . SVG Version: 6.00 Build 0)  -->
<svg version="1.1" id="Layer_1" xmlns="http://www.w3.org/2000/svg" xmlns:xlink="http://www.w3.org/1999/xlink" x="0px" y="0px"
	 viewBox="0 0 3665 3691" style="enable-background:new 0 0 3665 3691;" xml:space="preserve">
<style type="text/css">
	.st0{display:none;fill:#FFFFFF;}
	.st1{fill:url(#SVGID_1_);}
	.st2{fill:url(#SVGID_00000099647593767539051940000000379258013471376549_);}
	.st3{fill:url(#SVGID_00000152954840876438185220000008225737446369739906_);}
	.st4{fill:url(#SVGID_00000140717588415328807130000009037733160667800450_);}
	.st5{fill:url(#SVGID_00000015319038649026851460000011763596049207433360_);}
	.st6{fill:url(#SVGID_00000065063306803262327890000002778999616728277889_);}
	.st7{fill:url(#SVGID_00000021096441370489773880000018309260410120053911_);}
	.st8{fill:url(#SVGID_00000090260700350280102380000008947087795985048741_);}
	.st9{fill:url(#SVGID_00000017502841600596952010000005016001391165224846_);}
	.st10{fill:url(#SVGID_00000085930941739214599810000014586710342701470596_);}
	.st11{fill:url(#SVGID_00000061441948342749004410000017816559740900198272_);}
	.st12{fill:url(#SVGID_00000128445805868379159850000009519261859053224834_);}
	.st13{fill:url(#SVGID_00000040563594359696987070000004392764522652797605_);}
	.st14{fill:url(#SVGID_00000051365537287965694790000010831720716889179045_);}
	.st15{fill:url(#SVGID_00000115508659142308974210000013595966409699306155_);}
	.st16{fill:url(#SVGID_00000125589620326096099760000013510101274890796691_);}
	.st17{fill:url(#SVGID_00000169532607771431605500000002642487550700138629_);}
	.st18{fill:url(#SVGID_00000179636448221931411690000010066435084993730464_);}
	.st19{fill:url(#SVGID_00000062893885158615240110000005409000051556107155_);}
	.st20{fill:url(#SVGID_00000034810275270844473760000014737141057102607236_);}
	.st21{fill:url(#SVGID_00000024720293279565314690000015458151637799649155_);}
	.st22{fill:url(#SVGID_00000156582128885800835130000004387933158027924896_);}
	.st23{fill:url(#SVGID_00000144337177532681292090000015439140566011776670_);}
	.st24{fill:url(#SVGID_00000023260487308403243660000017615195354619602604_);}
	.st25{fill:url(#SVGID_00000015322249064047505580000004862158013406716339_);}
	.st26{fill:url(#SVGID_00000174562945274500426750000017058627445743792774_);}
	.st27{fill:url(#SVGID_00000176019139882077691290000001015298410263065532_);}
	.st28{fill:url(#SVGID_00000165945549024850648410000012825741040888485515_);}
	.st29{fill:url(#SVGID_00000112609982688615581020000016737018616970256804_);}
	.st30{fill:url(#SVGID_00000145026657342573154340000016516673282835761057_);}
	.st31{fill:url(#SVGID_00000155124685942781005260000001758050529572030605_);}
	.st32{fill:url(#SVGID_00000178919256844073532560000012271421720876399241_);}
	.st33{fill:url(#SVGID_00000043428528874323686600000009670329875283223189_);}
	.st34{fill:url(#SVGID_00000157283076755931940690000005728402885416122280_);}
	.st35{fill:url(#SVGID_00000127025749634139500250000004269718894358164894_);}
	.st36{fill:url(#SVGID_00000116204640551365088590000004723083830358389695_);}
</style>
<rect x="0" y="4" class="st0" width="3665" height="3691"/>
<g>
	<g>
		<g>
			<g>
			</g>
		</g>
		<linearGradient id="SVGID_1_" gradientUnits="userSpaceOnUse" x1="2205.4771" y1="2101.2925" x2="2436.1025" y2="2096.0044">
			<stop  offset="0.1023" style="stop-color:#544E5E"/>
			<stop  offset="0.1217" style="stop-color:#535361"/>
			<stop  offset="0.2392" style="stop-color:#4F6D71"/>
			<stop  offset="0.3693" style="stop-color:#4C817D"/>
			<stop  offset="0.5168" style="stop-color:#4A8F85"/>
			<stop  offset="0.6966" style="stop-color:#48978A"/>
			<stop  offset="1" style="stop-color:#489A8C"/>
		</linearGradient>
		<path class="st1" d="M2440.43,2355.09c-1.96,1.96-5.05,2.08-7.82,2.07c-65.31-0.17-130.62-0.35-195.93-0.52
			c-1.82-0.01-3.81-0.07-5.21-1.23c-2.4-2.01-1.51-6.15,0.86-8.19c2.37-2.03,5.62-2.6,8.65-3.35c23.4-5.75,40.89-26.28,49.46-48.8
			c8.57-22.52,9.67-47.08,10.68-71.15c2.44-58.61,4.89-117.22,7.34-175.82c0.22-5.3,4.34-64.8-5.7-107.7
			c-3.05-13.08-7.15-23.46-8.76-27.4c-6.09-14.86-11.74-28.66-25-42c-3.8-3.82-16.62-16.06-37-23c-18.49-6.3-32.45-4.57-32.44-4.76
			c0.01-0.43,75.33-16.64,124.32,22.18c24.16,19.15,34.49,44.46,41.14,67.06c12.92,43.88,10.77,90.57,9.26,136.28
			c-1.67,50.43-2.42,100.88-3.17,151.33c-0.35,24.01-0.63,48.56,7.06,71.31c7.69,22.74,25.02,43.71,48.44,49
			c4.06,0.91,8.41,1.42,11.75,3.9C2441.71,2346.77,2443.37,2352.15,2440.43,2355.09z"/>
		
			<linearGradient id="SVGID_00000173156209928684263080000015478020571628614809_" gradientUnits="userSpaceOnUse" x1="1659.6633" y1="2107.0273" x2="1842.0834" y2="2102.8447">
			<stop  offset="0.1023" style="stop-color:#544E5E"/>
			<stop  offset="0.1217" style="stop-color:#535361"/>
			<stop  offset="0.2392" style="stop-color:#4F6D71"/>
			<stop  offset="0.3693" style="stop-color:#4C817D"/>
			<stop  offset="0.5168" style="stop-color:#4A8F85"/>
			<stop  offset="0.6966" style="stop-color:#48978A"/>
			<stop  offset="1" style="stop-color:#489A8C"/>
		</linearGradient>
		<path style="fill:url(#SVGID_00000173156209928684263080000015478020571628614809_);" d="M1723,2355.91h115.22
			c4.09,0.26,9.79-0.85,9.55-4.94c-0.19-3.27-4.14-4.63-7.28-5.52c-19.44-5.56-33.36-23.47-39.61-42.69
			c-6.26-19.22-6.09-39.85-5.89-60.06c1.24-122.76,1.68-245.54,1.34-368.31c-0.02-6.54-0.62-14.21-6.13-17.75
			c-3.12-2.01-7.07-2.1-10.79-2.12c-38.14-0.22-76.28-0.43-114.42-0.65c-4.88-0.03-11.58,1.84-10.95,6.68
			c0.27,2.09,2.01,3.67,3.73,4.9c10.18,7.29,23.18,9.43,34.04,15.65c15.68,8.98,24.56,25.85,29.06,43.35
			c4.5,17.49,3.27,35.8,3.01,53.86L1723,2355.91z"/>
		
			<linearGradient id="SVGID_00000054245160547406237380000001437781961502099862_" gradientUnits="userSpaceOnUse" x1="2766.2708" y1="2100.9695" x2="3145.8555" y2="2092.2659">
			<stop  offset="0.1023" style="stop-color:#544E5E"/>
			<stop  offset="0.1217" style="stop-color:#535361"/>
			<stop  offset="0.2392" style="stop-color:#4F6D71"/>
			<stop  offset="0.3693" style="stop-color:#4C817D"/>
			<stop  offset="0.5168" style="stop-color:#4A8F85"/>
			<stop  offset="0.6966" style="stop-color:#48978A"/>
			<stop  offset="1" style="stop-color:#489A8C"/>
		</linearGradient>
		<path style="fill:url(#SVGID_00000054245160547406237380000001437781961502099862_);" d="M3150.07,2276.07
			c-1.97,2.54-4.04,5.03-6.21,7.48c-39.05,44.06-96.61,57.78-141.86,61.45c-20.06,0.15-51.59-2.17-87-16
			c-36.05-14.08-59.64-33.67-69-42c-12.19-10.85-29.91-28.99-45.11-55.27c-19.12-33.06-24.27-62.12-29.13-88.69
			c-5.26-28.75-10.2-75.4,0-133.04c5.69-23.46,20.03-67.01,58.26-103.47c4.07-3.89,22.15-20.85,50.98-35.53
			c33.15-16.89,63.64-22.17,83-24c-19.08,17.95-43.94,46.1-63,86c-4.17,8.73-18.18,39.2-25,82c-3.29,20.63-8.36,54.39,0,97
			c3.55,18.07,9.7,47.87,31,80c29.08,43.88,67.35,63.35,77,68c28.47,13.72,52.81,16.38,76,19
			C3097.46,2283.23,3128.81,2279.87,3150.07,2276.07z"/>
		
			<linearGradient id="SVGID_00000174600322388372547340000003484900033830097317_" gradientUnits="userSpaceOnUse" x1="2476.4771" y1="2101.2925" x2="2707.1025" y2="2096.0044">
			<stop  offset="0.1023" style="stop-color:#544E5E"/>
			<stop  offset="0.1217" style="stop-color:#535361"/>
			<stop  offset="0.2392" style="stop-color:#4F6D71"/>
			<stop  offset="0.3693" style="stop-color:#4C817D"/>
			<stop  offset="0.5168" style="stop-color:#4A8F85"/>
			<stop  offset="0.6966" style="stop-color:#48978A"/>
			<stop  offset="1" style="stop-color:#489A8C"/>
		</linearGradient>
		<path style="fill:url(#SVGID_00000174600322388372547340000003484900033830097317_);" d="M2711.43,2355.09
			c-1.96,1.96-5.05,2.08-7.82,2.07c-65.31-0.17-130.62-0.35-195.93-0.52c-1.82-0.01-3.81-0.07-5.21-1.23
			c-2.4-2.01-1.51-6.15,0.86-8.19c2.37-2.03,5.62-2.6,8.65-3.35c23.4-5.75,40.89-26.28,49.46-48.8
			c8.57-22.52,9.67-47.08,10.68-71.15c2.44-58.61,4.89-117.22,7.34-175.82c0.22-5.3,4.34-64.8-5.7-107.7
			c-3.05-13.08-7.15-23.46-8.76-27.4c-6.09-14.86-11.74-28.66-25-42c-3.8-3.82-16.62-16.06-37-23c-18.49-6.3-32.45-4.57-32.44-4.76
			c0.01-0.43,75.33-16.64,124.32,22.18c24.16,19.15,34.49,44.46,41.14,67.06c12.92,43.88,10.77,90.57,9.26,136.28
			c-1.67,50.43-2.42,100.88-3.17,151.33c-0.35,24.01-0.63,48.56,7.06,71.31c7.69,22.74,25.02,43.71,48.44,49
			c4.06,0.91,8.41,1.42,11.75,3.9C2712.71,2346.77,2714.37,2352.15,2711.43,2355.09z"/>
		
			<linearGradient id="SVGID_00000026156479818187889050000010459514116644271755_" gradientUnits="userSpaceOnUse" x1="1947.0249" y1="2102.7434" x2="2163.1738" y2="2097.7871">
			<stop  offset="0.1023" style="stop-color:#544E5E"/>
			<stop  offset="0.1217" style="stop-color:#535361"/>
			<stop  offset="0.2392" style="stop-color:#4F6D71"/>
			<stop  offset="0.3693" style="stop-color:#4C817D"/>
			<stop  offset="0.5168" style="stop-color:#4A8F85"/>
			<stop  offset="0.6966" style="stop-color:#48978A"/>
			<stop  offset="1" style="stop-color:#489A8C"/>
		</linearGradient>
		<path style="fill:url(#SVGID_00000026156479818187889050000010459514116644271755_);" d="M2168.95,2350.46
			c-0.1,3.67-3.27,6.54-6.94,6.54h-203.36c-3.97,0-5.95-2.31-5.95-6.94c0-4.62,1.98-6.94,5.95-6.94
			c19.17-3.31,34.87-11.91,47.12-25.8c12.23-13.88,18.35-30.41,18.35-49.6v-281.69c0-19.17-6.12-35.71-18.35-49.6
			c-12.25-13.89-27.95-22.47-47.12-25.79c-3.97,0-5.95-2.31-5.95-6.94c0-2.31,0.5-4.04,1.49-5.2c0.99-1.16,2.47-1.74,4.46-1.74
			c22.75,0,48.33-11.47,69.45-19.92c16.42-6.56,22.3-11.15,32.84-16.42c39.41-19.7,36.13-36.12,34.91,6.63l0.69,175.49v225.18
			c0,19.19,6.1,35.72,18.35,49.6c12.23,13.89,27.93,22.49,47.12,25.8C2166.76,2343.12,2169.08,2345.57,2168.95,2350.46z"/>
		
			<linearGradient id="SVGID_00000070077782532895643580000012717388137220891020_" gradientUnits="userSpaceOnUse" x1="769.954" y1="1850.2787" x2="1041.2444" y2="1844.0581">
			<stop  offset="0.1023" style="stop-color:#544E5E"/>
			<stop  offset="0.1217" style="stop-color:#535361"/>
			<stop  offset="0.2392" style="stop-color:#4F6D71"/>
			<stop  offset="0.3693" style="stop-color:#4C817D"/>
			<stop  offset="0.5168" style="stop-color:#4A8F85"/>
			<stop  offset="0.6966" style="stop-color:#48978A"/>
			<stop  offset="1" style="stop-color:#489A8C"/>
		</linearGradient>
		<path style="fill:url(#SVGID_00000070077782532895643580000012717388137220891020_);" d="M988.21,1699.75
			c35.37,35.71,53.07,85.65,53.07,149.79c0,63.49-18.03,113.09-54.06,148.8c-36.06,35.71-87.15,53.91-153.27,54.56H774.6l60.25-9.08
			c13.07-1.97,25.85-5.54,38.02-10.7c5.09-2.16,2.25-1.31,16.14-7.51c21.48-9.58,37.52-22.32,48.11-38.19
			c10.57-15.87,17.02-33.73,19.34-53.57c2.31-19.84,3.48-39.68,3.48-59.52v-52.57c0-19.84-1.17-39.34-3.48-58.53
			c-2.32-19.18-8.77-36.53-19.34-52.08c-10.59-15.53-26.63-28.1-48.11-37.7c-21.5-9.58-19.32-6.8-55.45-13.37h-3.28l-61.21-13.07
			c0-0.28-0.03-0.56-0.05-0.84h62.95C900.74,1646.18,952.82,1664.04,988.21,1699.75z"/>
		
			<linearGradient id="SVGID_00000183932358688979765380000008537611033030291861_" gradientUnits="userSpaceOnUse" x1="3004.8799" y1="1973.5953" x2="3178.6106" y2="1969.6117">
			<stop  offset="0.1023" style="stop-color:#544E5E"/>
			<stop  offset="0.1217" style="stop-color:#535361"/>
			<stop  offset="0.2392" style="stop-color:#4F6D71"/>
			<stop  offset="0.3693" style="stop-color:#4C817D"/>
			<stop  offset="0.5168" style="stop-color:#4A8F85"/>
			<stop  offset="0.6966" style="stop-color:#48978A"/>
			<stop  offset="1" style="stop-color:#489A8C"/>
		</linearGradient>
		<path style="fill:url(#SVGID_00000183932358688979765380000008537611033030291861_);" d="M3180.49,2095.23h-101.81
			c2.48-27.52,2.74-64.25-5.68-106.23c-4.95-24.7-11.89-46.15-19-64c-6.65-13.4-15.14-28.36-26-44c-8.76-12.62-17.62-23.59-26-33
			c23.15,2.05,81,10.6,122.66,56.51c22.46,24.74,31.83,51.09,39.41,72.47C3181.5,2026.12,3181.9,2070.33,3180.49,2095.23z"/>
		
			<linearGradient id="SVGID_00000116927156354753159690000004907056184539316669_" gradientUnits="userSpaceOnUse" x1="1012.6929" y1="1732.5433" x2="1310.2664" y2="1725.7202">
			<stop  offset="0.1023" style="stop-color:#544E5E"/>
			<stop  offset="0.1217" style="stop-color:#535361"/>
			<stop  offset="0.2392" style="stop-color:#4F6D71"/>
			<stop  offset="0.3693" style="stop-color:#4C817D"/>
			<stop  offset="0.5168" style="stop-color:#4A8F85"/>
			<stop  offset="0.6966" style="stop-color:#48978A"/>
			<stop  offset="1" style="stop-color:#489A8C"/>
		</linearGradient>
		<path style="fill:url(#SVGID_00000116927156354753159690000004907056184539316669_);" d="M1324.19,2333.11
			c0,4.75-2.38,7.11-7.11,7.11h-207.13c-4.06,0-6.09-2.36-6.09-7.11c0-4.72,2.03-7.1,6.09-7.1c19.63-3.38,35.7-12.19,48.23-26.4
			c12.52-14.22,18.78-31.13,18.78-50.77v-532.05c0-19.63-0.99-69.73-0.99-69.73c0.95-68.06,2.75-197.63,3.08-221.97
			c0.02-1.56,0.19-3.12,0.4-4.67c1.81-13.88-16.82-223.85-180.84-302.07c12.34-4.04,197.29,56.57,245.09,235.46
			c7.48,27.99,10.77,56.94,10.36,85.91l-2.96,207.01v602.11c-0.09,32.16,47.04,73.79,65.99,77.17
			C1321.81,2326.01,1324.19,2328.39,1324.19,2333.11z"/>
		
			<linearGradient id="SVGID_00000034048404273723067220000013862452257671881353_" gradientUnits="userSpaceOnUse" x1="728.5058" y1="1346.6304" x2="1032.7085" y2="1339.6552">
			<stop  offset="0.1023" style="stop-color:#544E5E"/>
			<stop  offset="0.1217" style="stop-color:#535361"/>
			<stop  offset="0.2392" style="stop-color:#4F6D71"/>
			<stop  offset="0.3693" style="stop-color:#4C817D"/>
			<stop  offset="0.5168" style="stop-color:#4A8F85"/>
			<stop  offset="0.6966" style="stop-color:#48978A"/>
			<stop  offset="1" style="stop-color:#489A8C"/>
		</linearGradient>
		<path style="fill:url(#SVGID_00000034048404273723067220000013862452257671881353_);" d="M794.15,1187.16
			c42.7-39.41,107.5-56.09,131.37-65.68c-9.85,9.85-26.65,23.59-29.56,26.27c-138.79,128.32-123.79,243.78-3.28,341.56
			c50.15,40.69,108.38,65.68,145.05,69.34c-23.92,3.59-60.13,3.11-92.5-3.66C771.15,1518.61,645.06,1324.79,794.15,1187.16z"/>
		
			<linearGradient id="SVGID_00000165922562493617271690000016725767035986351282_" gradientUnits="userSpaceOnUse" x1="1307.7933" y1="1338.8206" x2="2361.2756" y2="1314.6648">
			<stop  offset="0.1023" style="stop-color:#544E5E"/>
			<stop  offset="0.1217" style="stop-color:#535361"/>
			<stop  offset="0.2392" style="stop-color:#4F6D71"/>
			<stop  offset="0.3693" style="stop-color:#4C817D"/>
			<stop  offset="0.5168" style="stop-color:#4A8F85"/>
			<stop  offset="0.6966" style="stop-color:#48978A"/>
			<stop  offset="1" style="stop-color:#489A8C"/>
		</linearGradient>
		<path style="fill:url(#SVGID_00000165922562493617271690000016725767035986351282_);" d="M1311.52,1487.28
			c-0.11,0.04-0.22,0.08-0.32,0.11c221.59-135.99,475.49-356.52,754.99-304.85c79.3,14.66,151.32,76.71,205.4,133.18
			c17.67,18.44,35.27,40.55,50.32,61.18c12.53,17.17,32.23,43.44,42.09,56.58c-95.42-58.76-182.47-141.93-295-163.47
			c-115.33-22.08-235.69,0.33-344.96,39.17c-40.76,14.48-100.6,40.32-109.11,43.99c-46.89,20.25-59.49,27.45-180.97,83.61
			C1414.97,1445.56,1371.05,1465.76,1311.52,1487.28z"/>
		
			<linearGradient id="SVGID_00000136410836091113745500000017706791645763052431_" gradientUnits="userSpaceOnUse" x1="1362.1107" y1="2097.5134" x2="1642.2072" y2="2091.0911">
			<stop  offset="0.1023" style="stop-color:#544E5E"/>
			<stop  offset="0.1217" style="stop-color:#535361"/>
			<stop  offset="0.2392" style="stop-color:#4F6D71"/>
			<stop  offset="0.3693" style="stop-color:#4C817D"/>
			<stop  offset="0.5168" style="stop-color:#4A8F85"/>
			<stop  offset="0.6966" style="stop-color:#48978A"/>
			<stop  offset="1" style="stop-color:#489A8C"/>
		</linearGradient>
		<path style="fill:url(#SVGID_00000136410836091113745500000017706791645763052431_);" d="M1559.14,2330.06
			c28.85,9.13,58.76,14.9,88.94,17.16c-27.63,3.73-55.61,6.52-83.36,3.8s-55.47-11.27-77.54-28.3
			c-28.3-21.82-45.12-55.88-52.88-90.76s-7.35-70.99-6.89-106.72c0.67-53.09,1.34-106.18,2.01-159.27
			c0.33-25.86,0.39-52.93-11.52-75.89c-10.06-19.4-29.07-34.48-50.71-37.6c-4.13-0.59-9.2-1.42-10.55-5.36
			c-2.13-6.26,7.17-9.66,13.78-9.64c36.39,0.09,72.79,0.18,109.18,0.27c4.64,0.01,9.57,0.1,13.49,2.59c7,4.45,7.74,14.18,7.73,22.47
			c-0.07,106.97-0.15,213.93-0.23,320.9c-0.01,22.93-0.01,46.02,4.28,68.54c2.66,13.97,7.05,27.72,13.82,40.26
			c7.01,12.98,16.2,22.71,28.17,31.21L1559.14,2330.06z"/>
		
			<linearGradient id="SVGID_00000055666247543703485630000007429058481972701857_" gradientUnits="userSpaceOnUse" x1="552.0477" y1="1996.1393" x2="777.1248" y2="1990.9784">
			<stop  offset="0.1023" style="stop-color:#544E5E"/>
			<stop  offset="0.1217" style="stop-color:#535361"/>
			<stop  offset="0.2392" style="stop-color:#4F6D71"/>
			<stop  offset="0.3693" style="stop-color:#4C817D"/>
			<stop  offset="0.5168" style="stop-color:#4A8F85"/>
			<stop  offset="0.6966" style="stop-color:#48978A"/>
			<stop  offset="1" style="stop-color:#489A8C"/>
		</linearGradient>
		<path style="fill:url(#SVGID_00000055666247543703485630000007429058481972701857_);" d="M784.98,2333.64
			c0,4.63-2.33,6.94-6.95,6.94H566.74c-4.64,0-6.95-2.31-6.95-6.94c0-3.3,2.31-5.61,6.95-6.94c19.17-2.64,34.72-10.92,46.62-24.81
			c11.91-13.88,17.86-30.41,17.86-49.6v-517.82c0-19.17-6.12-35.71-18.35-49.6c-12.25-13.89-27.63-22.15-46.13-24.8
			c-4.64-1.32-6.95-3.63-6.95-6.94c0-4.62,2.31-6.95,6.95-6.95h144.73l2.08,406.72v199.39c0,19.19,5.96,35.72,17.86,49.6
			c11.9,13.89,27.43,22.17,46.62,24.81C782.65,2328.03,784.98,2330.34,784.98,2333.64z"/>
	</g>
	<g>
		<g>
			<g>
			</g>
			<g>
			</g>
			<g>
			</g>
		</g>
		
			<linearGradient id="SVGID_00000087386359784455131950000010222323904775892391_" gradientUnits="userSpaceOnUse" x1="539.0441" y1="1767.7777" x2="3159.1284" y2="1707.7006">
			<stop  offset="0.1023" style="stop-color:#544E5E"/>
			<stop  offset="0.1217" style="stop-color:#535361"/>
			<stop  offset="0.2392" style="stop-color:#4F6D71"/>
			<stop  offset="0.3693" style="stop-color:#4C817D"/>
			<stop  offset="0.5168" style="stop-color:#4A8F85"/>
			<stop  offset="0.6966" style="stop-color:#48978A"/>
			<stop  offset="1" style="stop-color:#489A8C"/>
		</linearGradient>
		<path style="fill:url(#SVGID_00000087386359784455131950000010222323904775892391_);" d="M2440.43,2355.09
			c-1.96,1.96-5.05,2.08-7.82,2.07c-65.31-0.17-130.62-0.35-195.93-0.52c-1.82-0.01-3.81-0.07-5.21-1.23
			c-2.4-2.01-1.51-6.15,0.86-8.19c2.37-2.03,5.62-2.6,8.65-3.35c23.4-5.75,40.89-26.28,49.46-48.8
			c8.57-22.52,9.67-47.08,10.68-71.15c2.44-58.61,4.89-117.22,7.34-175.82c0.22-5.3,4.34-64.8-5.7-107.7
			c-3.05-13.08-7.15-23.46-8.76-27.4c-6.09-14.86-11.74-28.66-25-42c-3.8-3.82-16.62-16.06-37-23c-18.49-6.3-32.45-4.57-32.44-4.76
			c0.01-0.43,75.33-16.64,124.32,22.18c24.16,19.15,34.49,44.46,41.14,67.06c12.92,43.88,10.77,90.57,9.26,136.28
			c-1.67,50.43-2.42,100.88-3.17,151.33c-0.35,24.01-0.63,48.56,7.06,71.31c7.69,22.74,25.02,43.71,48.44,49
			c4.06,0.91,8.41,1.42,11.75,3.9C2441.71,2346.77,2443.37,2352.15,2440.43,2355.09z"/>
		
			<linearGradient id="SVGID_00000124884740259588707650000002951984597178555032_" gradientUnits="userSpaceOnUse" x1="539.0441" y1="1767.7777" x2="3159.1284" y2="1707.7006">
			<stop  offset="0.1023" style="stop-color:#544E5E"/>
			<stop  offset="0.1217" style="stop-color:#535361"/>
			<stop  offset="0.2392" style="stop-color:#4F6D71"/>
			<stop  offset="0.3693" style="stop-color:#4C817D"/>
			<stop  offset="0.5168" style="stop-color:#4A8F85"/>
			<stop  offset="0.6966" style="stop-color:#48978A"/>
			<stop  offset="1" style="stop-color:#489A8C"/>
		</linearGradient>
		<path style="fill:url(#SVGID_00000124884740259588707650000002951984597178555032_);" d="M1723,2355.91h115.22
			c4.09,0.26,9.79-0.85,9.55-4.94c-0.19-3.27-4.14-4.63-7.28-5.52c-19.44-5.56-33.36-23.47-39.61-42.69
			c-6.26-19.22-6.09-39.85-5.89-60.06c1.24-122.76,1.68-245.54,1.34-368.31c-0.02-6.54-0.62-14.21-6.13-17.75
			c-3.12-2.01-7.07-2.1-10.79-2.12c-38.14-0.22-76.28-0.43-114.42-0.65c-4.88-0.03-11.58,1.84-10.95,6.68
			c0.27,2.09,2.01,3.67,3.73,4.9c10.18,7.29,23.18,9.43,34.04,15.65c15.68,8.98,24.56,25.85,29.06,43.35
			c4.5,17.49,3.27,35.8,3.01,53.86L1723,2355.91z"/>
		
			<linearGradient id="SVGID_00000057120837946119588480000011321011895861298841_" gradientUnits="userSpaceOnUse" x1="539.0441" y1="1767.7777" x2="3159.1284" y2="1707.7006">
			<stop  offset="0.1023" style="stop-color:#544E5E"/>
			<stop  offset="0.1217" style="stop-color:#535361"/>
			<stop  offset="0.2392" style="stop-color:#4F6D71"/>
			<stop  offset="0.3693" style="stop-color:#4C817D"/>
			<stop  offset="0.5168" style="stop-color:#4A8F85"/>
			<stop  offset="0.6966" style="stop-color:#48978A"/>
			<stop  offset="1" style="stop-color:#489A8C"/>
		</linearGradient>
		<path style="fill:url(#SVGID_00000057120837946119588480000011321011895861298841_);" d="M3150.07,2276.07
			c-1.97,2.54-4.04,5.03-6.21,7.48c-39.05,44.06-96.61,57.78-141.86,61.45c-20.06,0.15-51.59-2.17-87-16
			c-36.05-14.08-59.64-33.67-69-42c-12.19-10.85-29.91-28.99-45.11-55.27c-19.12-33.06-24.27-62.12-29.13-88.69
			c-5.26-28.75-10.2-75.4,0-133.04c5.69-23.46,20.03-67.01,58.26-103.47c4.07-3.89,22.15-20.85,50.98-35.53
			c33.15-16.89,63.64-22.17,83-24c-19.08,17.95-43.94,46.1-63,86c-4.17,8.73-18.18,39.2-25,82c-3.29,20.63-8.36,54.39,0,97
			c3.55,18.07,9.7,47.87,31,80c29.08,43.88,67.35,63.35,77,68c28.47,13.72,52.81,16.38,76,19
			C3097.46,2283.23,3128.81,2279.87,3150.07,2276.07z"/>
		
			<linearGradient id="SVGID_00000082336984697519047870000011577369368568291997_" gradientUnits="userSpaceOnUse" x1="539.0441" y1="1767.7777" x2="3159.1284" y2="1707.7006">
			<stop  offset="0.1023" style="stop-color:#544E5E"/>
			<stop  offset="0.1217" style="stop-color:#535361"/>
			<stop  offset="0.2392" style="stop-color:#4F6D71"/>
			<stop  offset="0.3693" style="stop-color:#4C817D"/>
			<stop  offset="0.5168" style="stop-color:#4A8F85"/>
			<stop  offset="0.6966" style="stop-color:#48978A"/>
			<stop  offset="1" style="stop-color:#489A8C"/>
		</linearGradient>
		<path style="fill:url(#SVGID_00000082336984697519047870000011577369368568291997_);" d="M2711.43,2355.09
			c-1.96,1.96-5.05,2.08-7.82,2.07c-65.31-0.17-130.62-0.35-195.93-0.52c-1.82-0.01-3.81-0.07-5.21-1.23
			c-2.4-2.01-1.51-6.15,0.86-8.19c2.37-2.03,5.62-2.6,8.65-3.35c23.4-5.75,40.89-26.28,49.46-48.8
			c8.57-22.52,9.67-47.08,10.68-71.15c2.44-58.61,4.89-117.22,7.34-175.82c0.22-5.3,4.34-64.8-5.7-107.7
			c-3.05-13.08-7.15-23.46-8.76-27.4c-6.09-14.86-11.74-28.66-25-42c-3.8-3.82-16.62-16.06-37-23c-18.49-6.3-32.45-4.57-32.44-4.76
			c0.01-0.43,75.33-16.64,124.32,22.18c24.16,19.15,34.49,44.46,41.14,67.06c12.92,43.88,10.77,90.57,9.26,136.28
			c-1.67,50.43-2.42,100.88-3.17,151.33c-0.35,24.01-0.63,48.56,7.06,71.31c7.69,22.74,25.02,43.71,48.44,49
			c4.06,0.91,8.41,1.42,11.75,3.9C2712.71,2346.77,2714.37,2352.15,2711.43,2355.09z"/>
		
			<linearGradient id="SVGID_00000007416909814416305550000007509097831227127484_" gradientUnits="userSpaceOnUse" x1="539.0441" y1="1767.7777" x2="3159.1284" y2="1707.7006">
			<stop  offset="0.1023" style="stop-color:#544E5E"/>
			<stop  offset="0.1217" style="stop-color:#535361"/>
			<stop  offset="0.2392" style="stop-color:#4F6D71"/>
			<stop  offset="0.3693" style="stop-color:#4C817D"/>
			<stop  offset="0.5168" style="stop-color:#4A8F85"/>
			<stop  offset="0.6966" style="stop-color:#48978A"/>
			<stop  offset="1" style="stop-color:#489A8C"/>
		</linearGradient>
		<path style="fill:url(#SVGID_00000007416909814416305550000007509097831227127484_);" d="M2168.95,2350.46
			c-0.1,3.67-3.27,6.54-6.94,6.54h-203.36c-3.97,0-5.95-2.31-5.95-6.94c0-4.62,1.98-6.94,5.95-6.94
			c19.17-3.31,34.87-11.91,47.12-25.8c12.23-13.88,18.35-30.41,18.35-49.6v-281.69c0-19.17-6.12-35.71-18.35-49.6
			c-12.25-13.89-27.95-22.47-47.12-25.79c-3.97,0-5.95-2.31-5.95-6.94c0-2.31,0.5-4.04,1.49-5.2c0.99-1.16,2.47-1.74,4.46-1.74
			c22.75,0,48.33-11.47,69.45-19.92c16.42-6.56,22.3-11.15,32.84-16.42c39.41-19.7,36.13-36.12,34.91,6.63l0.69,175.49v225.18
			c0,19.19,6.1,35.72,18.35,49.6c12.23,13.89,27.93,22.49,47.12,25.8C2166.76,2343.12,2169.08,2345.57,2168.95,2350.46z"/>
		
			<linearGradient id="SVGID_00000045595545886340702770000011666762915887733381_" gradientUnits="userSpaceOnUse" x1="539.0441" y1="1767.7777" x2="3159.1284" y2="1707.7006">
			<stop  offset="0.1023" style="stop-color:#544E5E"/>
			<stop  offset="0.1217" style="stop-color:#535361"/>
			<stop  offset="0.2392" style="stop-color:#4F6D71"/>
			<stop  offset="0.3693" style="stop-color:#4C817D"/>
			<stop  offset="0.5168" style="stop-color:#4A8F85"/>
			<stop  offset="0.6966" style="stop-color:#48978A"/>
			<stop  offset="1" style="stop-color:#489A8C"/>
		</linearGradient>
		<path style="fill:url(#SVGID_00000045595545886340702770000011666762915887733381_);" d="M988.21,1699.75
			c35.37,35.71,53.07,85.65,53.07,149.79c0,63.49-18.03,113.09-54.06,148.8c-36.06,35.71-87.15,53.91-153.27,54.56H774.6l60.25-9.08
			c13.07-1.97,25.85-5.54,38.02-10.7c5.09-2.16,2.25-1.31,16.14-7.51c21.48-9.58,37.52-22.32,48.11-38.19
			c10.57-15.87,17.02-33.73,19.34-53.57c2.31-19.84,3.48-39.68,3.48-59.52v-52.57c0-19.84-1.17-39.34-3.48-58.53
			c-2.32-19.18-8.77-36.53-19.34-52.08c-10.59-15.53-26.63-28.1-48.11-37.7c-21.5-9.58-19.32-6.8-55.45-13.37h-3.28l-61.21-13.07
			c0-0.28-0.03-0.56-0.05-0.84h62.95C900.74,1646.18,952.82,1664.04,988.21,1699.75z"/>
		
			<linearGradient id="SVGID_00000093178998825336423710000007782244429874071740_" gradientUnits="userSpaceOnUse" x1="539.0441" y1="1767.7777" x2="3159.1284" y2="1707.7006">
			<stop  offset="0.1023" style="stop-color:#544E5E"/>
			<stop  offset="0.1217" style="stop-color:#535361"/>
			<stop  offset="0.2392" style="stop-color:#4F6D71"/>
			<stop  offset="0.3693" style="stop-color:#4C817D"/>
			<stop  offset="0.5168" style="stop-color:#4A8F85"/>
			<stop  offset="0.6966" style="stop-color:#48978A"/>
			<stop  offset="1" style="stop-color:#489A8C"/>
		</linearGradient>
		<path style="fill:url(#SVGID_00000093178998825336423710000007782244429874071740_);" d="M3180.49,2095.23h-101.81
			c2.48-27.52,2.74-64.25-5.68-106.23c-4.95-24.7-11.89-46.15-19-64c-6.65-13.4-15.14-28.36-26-44c-8.76-12.62-17.62-23.59-26-33
			c23.15,2.05,81,10.6,122.66,56.51c22.46,24.74,31.83,51.09,39.41,72.47C3181.5,2026.12,3181.9,2070.33,3180.49,2095.23z"/>
		
			<linearGradient id="SVGID_00000137110016899468856810000016468750161442057654_" gradientUnits="userSpaceOnUse" x1="539.0441" y1="1767.7777" x2="3159.1284" y2="1707.7006">
			<stop  offset="0.1023" style="stop-color:#544E5E"/>
			<stop  offset="0.1217" style="stop-color:#535361"/>
			<stop  offset="0.2392" style="stop-color:#4F6D71"/>
			<stop  offset="0.3693" style="stop-color:#4C817D"/>
			<stop  offset="0.5168" style="stop-color:#4A8F85"/>
			<stop  offset="0.6966" style="stop-color:#48978A"/>
			<stop  offset="1" style="stop-color:#489A8C"/>
		</linearGradient>
		<path style="fill:url(#SVGID_00000137110016899468856810000016468750161442057654_);" d="M1324.19,2333.11
			c0,4.75-2.38,7.11-7.11,7.11h-207.13c-4.06,0-6.09-2.36-6.09-7.11c0-4.72,2.03-7.1,6.09-7.1c19.63-3.38,35.7-12.19,48.23-26.4
			c12.52-14.22,18.78-31.13,18.78-50.77v-532.05c0-19.63-0.99-69.73-0.99-69.73c0.95-68.06,2.75-197.63,3.08-221.97
			c0.02-1.56,0.19-3.12,0.4-4.67c1.81-13.88-16.82-223.85-180.84-302.07c12.34-4.04,197.29,56.57,245.09,235.46
			c7.48,27.99,10.77,56.94,10.36,85.91l-2.96,207.01v602.11c-0.09,32.16,47.04,73.79,65.99,77.17
			C1321.81,2326.01,1324.19,2328.39,1324.19,2333.11z"/>
		
			<linearGradient id="SVGID_00000070818799278607885180000007896821513077888955_" gradientUnits="userSpaceOnUse" x1="539.0441" y1="1767.7777" x2="3159.1284" y2="1707.7006">
			<stop  offset="0.1023" style="stop-color:#544E5E"/>
			<stop  offset="0.1217" style="stop-color:#535361"/>
			<stop  offset="0.2392" style="stop-color:#4F6D71"/>
			<stop  offset="0.3693" style="stop-color:#4C817D"/>
			<stop  offset="0.5168" style="stop-color:#4A8F85"/>
			<stop  offset="0.6966" style="stop-color:#48978A"/>
			<stop  offset="1" style="stop-color:#489A8C"/>
		</linearGradient>
		<path style="fill:url(#SVGID_00000070818799278607885180000007896821513077888955_);" d="M794.15,1187.16
			c42.7-39.41,107.5-56.09,131.37-65.68c-9.85,9.85-26.65,23.59-29.56,26.27c-138.79,128.32-123.79,243.78-3.28,341.56
			c50.15,40.69,108.38,65.68,145.05,69.34c-23.92,3.59-60.13,3.11-92.5-3.66C771.15,1518.61,645.06,1324.79,794.15,1187.16z"/>
		
			<linearGradient id="SVGID_00000119836131252492600930000006664674053388709766_" gradientUnits="userSpaceOnUse" x1="539.0441" y1="1767.7777" x2="3159.1284" y2="1707.7006">
			<stop  offset="0.1023" style="stop-color:#544E5E"/>
			<stop  offset="0.1217" style="stop-color:#535361"/>
			<stop  offset="0.2392" style="stop-color:#4F6D71"/>
			<stop  offset="0.3693" style="stop-color:#4C817D"/>
			<stop  offset="0.5168" style="stop-color:#4A8F85"/>
			<stop  offset="0.6966" style="stop-color:#48978A"/>
			<stop  offset="1" style="stop-color:#489A8C"/>
		</linearGradient>
		<path style="fill:url(#SVGID_00000119836131252492600930000006664674053388709766_);" d="M1311.52,1487.28
			c-0.11,0.04-0.22,0.08-0.32,0.11c221.59-135.99,475.49-356.52,754.99-304.85c79.3,14.66,151.32,76.71,205.4,133.18
			c17.67,18.44,35.27,40.55,50.32,61.18c12.53,17.17,32.23,43.44,42.09,56.58c-95.42-58.76-182.47-141.93-295-163.47
			c-115.33-22.08-235.69,0.33-344.96,39.17c-40.76,14.48-100.6,40.32-109.11,43.99c-46.89,20.25-59.49,27.45-180.97,83.61
			C1414.97,1445.56,1371.05,1465.76,1311.52,1487.28z"/>
		
			<linearGradient id="SVGID_00000036962454745199696380000011882886254321735808_" gradientUnits="userSpaceOnUse" x1="539.0441" y1="1767.7777" x2="3159.1284" y2="1707.7006">
			<stop  offset="0.1023" style="stop-color:#544E5E"/>
			<stop  offset="0.1217" style="stop-color:#535361"/>
			<stop  offset="0.2392" style="stop-color:#4F6D71"/>
			<stop  offset="0.3693" style="stop-color:#4C817D"/>
			<stop  offset="0.5168" style="stop-color:#4A8F85"/>
			<stop  offset="0.6966" style="stop-color:#48978A"/>
			<stop  offset="1" style="stop-color:#489A8C"/>
		</linearGradient>
		<path style="fill:url(#SVGID_00000036962454745199696380000011882886254321735808_);" d="M1559.14,2330.06
			c28.85,9.13,58.76,14.9,88.94,17.16c-27.63,3.73-55.61,6.52-83.36,3.8s-55.47-11.27-77.54-28.3
			c-28.3-21.82-45.12-55.88-52.88-90.76s-7.35-70.99-6.89-106.72c0.67-53.09,1.34-106.18,2.01-159.27
			c0.33-25.86,0.39-52.93-11.52-75.89c-10.06-19.4-29.07-34.48-50.71-37.6c-4.13-0.59-9.2-1.42-10.55-5.36
			c-2.13-6.26,7.17-9.66,13.78-9.64c36.39,0.09,72.79,0.18,109.18,0.27c4.64,0.01,9.57,0.1,13.49,2.59c7,4.45,7.74,14.18,7.73,22.47
			c-0.07,106.97-0.15,213.93-0.23,320.9c-0.01,22.93-0.01,46.02,4.28,68.54c2.66,13.97,7.05,27.72,13.82,40.26
			c7.01,12.98,16.2,22.71,28.17,31.21L1559.14,2330.06z"/>
		
			<linearGradient id="SVGID_00000039838644332906122120000007757648908051977104_" gradientUnits="userSpaceOnUse" x1="539.0441" y1="1767.7777" x2="3159.1284" y2="1707.7006">
			<stop  offset="0.1023" style="stop-color:#544E5E"/>
			<stop  offset="0.1217" style="stop-color:#535361"/>
			<stop  offset="0.2392" style="stop-color:#4F6D71"/>
			<stop  offset="0.3693" style="stop-color:#4C817D"/>
			<stop  offset="0.5168" style="stop-color:#4A8F85"/>
			<stop  offset="0.6966" style="stop-color:#48978A"/>
			<stop  offset="1" style="stop-color:#489A8C"/>
		</linearGradient>
		<path style="fill:url(#SVGID_00000039838644332906122120000007757648908051977104_);" d="M784.98,2333.64
			c0,4.63-2.33,6.94-6.95,6.94H566.74c-4.64,0-6.95-2.31-6.95-6.94c0-3.3,2.31-5.61,6.95-6.94c19.17-2.64,34.72-10.92,46.62-24.81
			c11.91-13.88,17.86-30.41,17.86-49.6v-517.82c0-19.17-6.12-35.71-18.35-49.6c-12.25-13.89-27.63-22.15-46.13-24.8
			c-4.64-1.32-6.95-3.63-6.95-6.94c0-4.62,2.31-6.95,6.95-6.95h144.73l2.08,406.72v199.39c0,19.19,5.96,35.72,17.86,49.6
			c11.9,13.89,27.43,22.17,46.62,24.81C782.65,2328.03,784.98,2330.34,784.98,2333.64z"/>
	</g>
</g>
</svg>
