<svg xmlns="http://www.w3.org/2000/svg" width="34.122" height="30" viewBox="0 0 34.122 30">
  <path id="Shopping_Cart" data-name="Shopping Cart" d="M33.7,7.123a1.691,1.691,0,0,0-1.364-.641l-23.6-.027L7.677,2.268A1.7,1.7,0,0,0,6.027,1H0V2.364H6.027a.341.341,0,0,1,.327.245l5.059,20.3a1.7,1.7,0,0,0,1.65,1.268H29.427a1.677,1.677,0,0,0,1.664-1.364l3-14.25a1.691,1.691,0,0,0-.4-1.445ZM17.727,28.273A2.727,2.727,0,1,1,15,25.545,2.727,2.727,0,0,1,17.727,28.273Zm12.273,0a2.727,2.727,0,1,1-2.727-2.727A2.727,2.727,0,0,1,30,28.273Z" transform="translate(0 -1)" fill="white"/>
</svg>
