<?xml version="1.0" encoding="utf-8"?>
<!-- Generator: Adobe Illustrator 28.1.0, SVG Export Plug-In . SVG Version: 6.00 Build 0)  -->
<svg version="1.1" id="Layer_1" xmlns="http://www.w3.org/2000/svg" xmlns:xlink="http://www.w3.org/1999/xlink" x="0px" y="0px"
	 viewBox="0 0 841.89 595.28" style="enable-background:new 0 0 841.89 595.28;" xml:space="preserve">
<style type="text/css">
	.st0{fill:#C4A035;}
	.st1{fill:#C3A035;}
	.st2{fill:#FFFFFE;}
	.st3{fill:#414042;}
</style>
<g>
	<g>
		<path class="st0" d="M300.92,127.39c8.26-3.26,16.68-6.03,25.35-8.02c11.23-2.58,22.59-3.88,34.12-3.57
			c12.17,0.33,23.76,3.39,35.09,7.59c10,3.71,19.52,8.35,27.92,15.04c2.6,2.07,5.01,4.33,7.3,7.18c0.74-3.31,1.43-6.37,2.1-9.45
			c2.49-11.46,4.99-22.93,7.43-34.4c0.25-1.18,0.75-1.48,1.91-1.47c6.75,0.06,13.51,0.07,20.26,0c1.5-0.02,1.61,0.41,1.29,1.74
			c-5.16,21.74-10.27,43.48-15.4,65.23c-0.17,0.7-0.4,1.29,0.22,2.01c5.44,6.37,8.53,13.94,10.97,21.81
			c3.37,10.9,5.01,22.1,5.79,33.46c0.55,7.97,0.71,15.94,0.51,23.92c-0.01,0.28,0.03,0.55,0.06,1c0.63-0.48,0.61-1.09,0.72-1.62
			c2.65-12.78,3.76-25.69,3.03-38.71c-0.9-16.15-4.45-31.61-13.58-45.27c-1.91-2.86-2.2-5.23-1.4-8.47
			c4.35-17.71,8.47-35.49,12.6-53.25c0.3-1.28,0.8-1.56,2-1.55c6.75,0.05,13.51,0.06,20.26,0c1.29-0.01,1.61,0.23,1.3,1.57
			c-4.57,19.8-9.08,39.61-13.6,59.42c-0.2,0.86-0.34,1.66,0.16,2.57c4.06,7.44,6.26,15.5,7.47,23.82
			c2.33,15.95,1.47,31.76-1.55,47.59c-3.49,18.28-10.56,34.89-21.67,49.74c-15.99,21.38-37.23,35.18-62.67,42.73
			c-13.34,3.96-26.99,6.1-40.93,5.38c-17.67-0.92-34.44-5.29-50.07-13.83c-11.33-6.19-22.65-12.44-34.78-17
			c-7.02-2.64-14.19-4.74-21.81-4.53c-4.23,0.12-8.2,1.15-11.8,3.5c-1.92,1.25-2.3,3.09-2.27,5.1c0.02,1.24,0.85,1.57,2,1.37
			c2.82-0.48,5.63-1.07,8.49-1.34c2.61-0.25,5.17-0.08,7.7,0.51c9.19,2.14,12.52,13.34,9.91,18.88c-2.58,5.48-10.11,8.58-16.24,6.83
			c-9.13-2.61-14-8.92-16.89-17.63c-4.01-12.07-0.11-21.79,8.02-30.49c5.59-5.99,12-10.92,19.68-13.9
			c5.48-2.13,11.34-2.73,17.17-3.2c15.98-1.29,30.9,2.65,45.09,9.63c18.8,9.25,37.51,18.65,56.92,26.59
			c6.08,2.49,12.17,4.99,18.78,5.78c13.11,1.57,25.5-0.16,36.33-8.33c8.34-6.29,13.01-15.02,15.83-24.86
			c1.81-6.3,2.74-12.75,2.84-19.28c0.41-27.12-6.21-52.57-18.32-76.71c-2.39-4.76-6.12-8.38-9.73-12.18
			c-6.62-6.99-13.32-13.86-21.31-19.35c-12.18-8.36-25.65-13.32-40.25-15.32c-13.25-1.82-26.6-2.01-39.61,0.85
			c-19.5,4.28-36.65,13.21-49.32,29.23c-7.81,9.88-11.58,21.3-12.07,33.85c-0.36,9.19,1.08,18.13,3.54,26.95
			c0.1,0.37,0.32,0.72,0.09,1.26c-2.14-2.33-3.83-4.9-5.4-7.54c-6.78-11.42-10.05-23.75-9.25-37.03
			c0.75-12.39,4.99-23.67,11.58-34.09c15.5-24.48,37.44-40.22,65.31-47.85c10.73-2.93,21.66-4.42,32.78-4.81
			c15.71-0.55,31.22,0.78,46.42,4.86c8.72,2.34,17.05,5.64,24.42,11.06c1.48,1.09,1.9,2.1,1.37,3.91
			c-1.55,5.27-2.94,10.6-4.31,15.93c-0.31,1.22-0.56,1.28-1.56,0.52c-13.51-10.27-28.79-16.42-45.44-19.34
			c-13.8-2.42-27.55-1.6-41.29,0.55c-10.13,1.59-20.08,3.84-29.43,8.21c-3.83,1.79-7.52,3.81-10.49,6.92
			c-0.12,0.14-0.47,0.23-0.26,0.46C300.5,127.71,300.76,127.58,300.92,127.39z M255.74,286.23c5.74,0.23,10.98,0.54,16.19,1.34
			c10.89,1.68,21.38,4.65,31.19,9.78c6.12,3.2,11.79,7.2,17.99,10.29c15.6,7.78,31.89,12.75,49.52,12.4
			c4.82-0.09,9.58-0.61,14.22-1.96c-5.37-0.03-10.67-0.64-15.92-1.65c-14.78-2.85-28.46-8.57-41.42-16.09
			c-7.28-4.23-14.27-8.97-22.09-12.24c-12.41-5.2-25.14-7.97-38.63-5.56C263.1,283.19,259.52,284.24,255.74,286.23z M465.77,249.83
			c-0.05,0.18-0.11,0.33-0.12,0.47c-0.01,0.09,0.05,0.19,0.08,0.29c0.07-0.16,0.15-0.32,0.19-0.49
			C465.93,250.05,465.84,249.96,465.77,249.83z"/>
		<path class="st1" d="M578.44,322.52c-5.22-1.27-9.91-2.95-14.32-5.3c-11.54-6.14-19.65-15.07-22.36-28.18
			c-1.46-7.08-1.56-14.27-1.34-21.48c0.23-7.65,0.99-15.24,2.04-22.81c1.69-12.08,4.37-23.95,7.29-35.79
			c8.36-33.95,16.59-67.93,24.9-101.89c0.7-2.86-0.04-2.44,3.12-2.46c5.85-0.02,11.7,0.06,17.55-0.05c1.73-0.03,1.75,0.54,1.41,1.91
			c-4.41,17.87-8.8,35.75-13.17,53.63c-5.3,21.7-10.85,43.34-15.78,65.13c-3.75,16.56-6.03,33.38-6.04,50.43
			c0,4.84,0.35,9.64,1.31,14.41c2.15,10.71,9.06,16.82,19.23,19.39c12.61,3.18,24.37-2.83,29.79-14.77
			c2.23-4.9,3.41-10.06,3.96-15.42c0.72,2.67,0.62,5.43,0.6,8.14c-0.05,6.25-0.79,12.42-2.49,18.47
			c-5.17,18.41-18.22,29.61-37.25,32.05c-9.91,1.27-19.64,0.81-29.03-2.88c-10.98-4.3-18.97-12.04-24.85-22.08
			c-5.7-9.73-8.81-20.36-10.49-31.44c-2.33-15.43-1.78-30.81,1.11-46.11c0.25-1.33-0.1-1.47-1.26-1.47
			c-7.99,0.04-15.98-0.01-23.97,0.05c-1.49,0.01-1.78-0.37-1.45-1.8c0.53-2.29,0.92-4.63,1.2-6.97c0.14-1.15,0.55-1.47,1.68-1.47
			c7.99,0.05,15.98,0,23.97,0.05c1.14,0.01,1.74-0.19,1.88-1.46c0.18-1.56,0.49-3.12,0.94-4.61c0.4-1.33-0.08-1.45-1.23-1.45
			c-8.16,0.04-16.32-0.02-24.47,0.06c-1.47,0.01-1.82-0.39-1.61-1.8c0.4-2.62,0.27-5.28,0.2-7.91c-0.03-1.18,0.29-1.5,1.48-1.49
			c8.72,0.05,17.44-0.03,26.16,0.08c1.77,0.02,2.36-0.51,2.76-2.17c7.72-32.43,15.52-64.84,23.25-97.27
			c0.28-1.16,0.69-1.51,1.88-1.5c6.64,0.06,13.28,0.07,19.92,0c1.34-0.01,1.53,0.29,1.23,1.56c-4.36,18.29-8.68,36.59-12.99,54.89
			c-5.97,25.29-12.03,50.56-17.84,75.88c-2.74,11.92-3.94,24.07-3.52,36.31c0.33,9.93,1.65,19.72,6.27,28.73
			c6.61,12.89,17.43,19.54,31.63,21.07C572.51,323.02,575.28,323.08,578.44,322.52z"/>
		<path class="st1" d="M288.48,242.93c1.85,1.95,3.49,3.56,5.5,4.73c4.3,2.51,8.75,1.03,10.57-3.57c2.15-5.4,3.17-11.11,4.36-16.76
			c2.6-12.36,3.9-24.97,7.1-37.21c2.17-8.29,4.89-16.37,9.54-23.64c7.85-12.28,19.16-18.25,33.72-17.97
			c6.76,0.13,13.3,1.35,19.28,4.7c7.68,4.3,10.84,11.87,8.55,20.34c-0.05,0.2-0.18,0.38-0.34,0.71c-0.83-1.47-1.57-2.85-2.62-4.03
			c-3.91-4.36-9.82-4.03-13.07,0.83c-2.95,4.41-4.35,9.47-5.75,14.49c-3.11,11.16-5.04,22.56-7.12,33.94
			c-2.15,11.79-6.05,22.9-13.21,32.65c-4.62,6.29-10.45,11.2-18.34,12.55c-9.29,1.59-18.54,0.98-27.28-2.86
			c-6.86-3.01-10.33-8.56-10.76-16.02c-0.03-0.45-0.09-0.89-0.12-1.34C288.47,244.1,288.48,243.71,288.48,242.93z M313.63,251.97
			c5.04,1.46,9.13,0.23,12.7-2.89c4.28-3.74,6.72-8.68,8.54-13.92c3.22-9.24,5-18.86,7.11-28.39c2.29-10.29,4.2-20.68,7.76-30.64
			c1.76-4.94,3.89-9.7,7.72-13.48c0.76-0.75,1.61-1.4,2.67-2.31c-5.45,0.33-9.86,2.17-13.59,5.63c-4.88,4.54-7.55,10.33-8.87,16.7
			c-2.09,10-3.82,20.06-5.81,30.08c-1.8,9.03-3.77,18.03-7.42,26.54C322.21,244.51,319.61,249.48,313.63,251.97z"/>
		<path class="st2" d="M465.77,249.83c0.07,0.12,0.17,0.21,0.15,0.28c-0.04,0.17-0.12,0.32-0.19,0.49c-0.03-0.1-0.09-0.2-0.08-0.29
			C465.66,250.16,465.72,250.02,465.77,249.83z"/>
		<path class="st2" d="M300.92,127.39c-0.16,0.19-0.41,0.32-0.56,0.15c-0.21-0.24,0.14-0.32,0.26-0.46
			C300.72,127.18,300.82,127.28,300.92,127.39z"/>
	</g>
	<g>
		<path class="st3" d="M210.81,372.59l-3.97-2.36l-1.8,2.36l-4.92-2.92l3.38-4.49l3.9,2.43l1.87-2.43l4.92,3.02L210.81,372.59z
			 M219.95,400.64c-0.44,0-0.86-0.07-1.28-0.21c-0.42-0.14-0.8-0.32-1.16-0.54c-0.36-0.22-0.69-0.47-1-0.75
			c-0.31-0.28-0.57-0.57-0.79-0.85c-0.44-0.55-0.8-1.38-1.08-2.49c-0.28-1.11-0.48-2.32-0.59-3.6h-0.85l-2.65,4.06
			c-0.44-0.09-0.95-0.19-1.52-0.31c-0.58-0.12-1.17-0.25-1.77-0.39c-0.6-0.14-1.2-0.29-1.8-0.44c-0.6-0.15-1.14-0.31-1.62-0.46
			c-0.72-0.24-1.31-0.48-1.75-0.7c-0.45-0.23-0.79-0.49-1.03-0.77c-0.24-0.28-0.4-0.59-0.49-0.92c-0.09-0.33-0.13-0.71-0.13-1.15
			c0-0.44,0.14-1.03,0.43-1.79c0.28-0.75,0.62-1.53,1.02-2.33c0.39-0.8,0.8-1.54,1.21-2.23c0.42-0.69,0.75-1.18,1.02-1.49
			c0.22-0.26,0.55-0.51,0.98-0.75c0.44-0.24,0.92-0.48,1.46-0.71c0.54-0.23,1.11-0.46,1.72-0.69c0.61-0.23,1.2-0.45,1.77-0.67
			c0.57-0.22,1.14-0.43,1.72-0.64c0.58-0.21,1.12-0.42,1.62-0.64c-0.02-0.2-0.04-0.43-0.07-0.71c-0.02-0.27-0.04-0.56-0.05-0.85
			c-0.01-0.3-0.03-0.58-0.05-0.85c-0.02-0.27-0.03-0.5-0.03-0.67l3.44-4.03l0.43,6.92c0.02,0.31,0.05,0.74,0.08,1.31
			c0.03,0.57,0.08,1.22,0.15,1.95c0.07,0.73,0.13,1.52,0.2,2.38c0.07,0.85,0.14,1.7,0.21,2.54c0.08,0.84,0.15,1.65,0.23,2.44
			c0.08,0.79,0.16,1.49,0.25,2.1c0.04,0.33,0.15,0.63,0.33,0.9c0.17,0.27,0.36,0.46,0.56,0.57c0.31,0.22,0.66,0.39,1.07,0.51
			c0.4,0.12,0.98,0.18,1.72,0.18h2.49v6.78H219.95z M213.79,389.11l-0.26-7.21c-0.09,0.17-0.19,0.38-0.3,0.61
			c-0.11,0.23-0.22,0.46-0.34,0.7c-0.12,0.24-0.24,0.46-0.36,0.66c-0.12,0.2-0.23,0.33-0.34,0.39c-0.11,0.07-0.34,0.18-0.69,0.33
			c-0.35,0.15-0.77,0.34-1.26,0.56c-0.49,0.22-1.02,0.45-1.57,0.69c-0.56,0.24-1.1,0.46-1.64,0.67c-0.54,0.21-1.02,0.4-1.44,0.57
			c-0.43,0.17-0.75,0.29-0.97,0.36l-0.23,0.43c0.52,0.18,1.13,0.34,1.82,0.51c0.69,0.16,1.41,0.32,2.16,0.46
			c0.75,0.14,1.52,0.27,2.29,0.39s1.51,0.22,2.21,0.31L213.79,389.11z"/>
		<path class="st3" d="M224.31,400.64c-0.26,0-0.55-0.05-0.85-0.16c-0.31-0.11-0.59-0.27-0.85-0.48c-0.26-0.21-0.48-0.47-0.66-0.79
			c-0.17-0.32-0.26-0.67-0.26-1.07v-1.8c0-0.41,0.09-0.78,0.26-1.1c0.18-0.32,0.39-0.58,0.66-0.79c0.26-0.21,0.55-0.36,0.85-0.46
			c0.31-0.1,0.59-0.15,0.85-0.15h8.78c-0.13-0.46-0.34-0.97-0.62-1.54c-0.28-0.57-0.6-1.13-0.95-1.69
			c-0.35-0.56-0.71-1.08-1.08-1.56c-0.37-0.48-0.69-0.86-0.95-1.15l3.41-5.38c0.44,0.63,0.87,1.37,1.29,2.21s0.81,1.71,1.15,2.61
			c0.34,0.9,0.61,1.79,0.82,2.67c0.21,0.88,0.31,1.69,0.31,2.41c0,0.68-0.07,1.38-0.2,2.1c-0.13,0.72-0.3,1.44-0.49,2.16
			c-0.2,0.72-0.42,1.41-0.66,2.08c-0.24,0.67-0.47,1.28-0.69,1.85H224.31z M234.54,421.13l-3.97-2.36l-1.8,2.36l-4.92-2.92
			l3.38-4.49l3.9,2.43l1.87-2.43l4.92,3.02L234.54,421.13z"/>
		<path class="st3" d="M247.48,386.09c0.68,0.66,1.38,1.43,2.1,2.31c0.72,0.88,1.38,1.88,1.97,2.98c0.59,1.1,1.08,2.31,1.46,3.61
			c0.38,1.3,0.57,2.7,0.57,4.21c0,1.09-0.14,2.24-0.41,3.44c-0.27,1.2-0.66,2.39-1.15,3.56c-0.49,1.17-1.08,2.29-1.75,3.36
			c-0.68,1.07-1.43,2.01-2.24,2.82c-0.82,0.81-1.7,1.45-2.64,1.93c-0.94,0.48-1.91,0.72-2.92,0.72c-0.66,0-1.42-0.1-2.29-0.3
			c-0.87-0.2-1.82-0.48-2.85-0.85c-1.03-0.37-2.12-0.81-3.28-1.33c-1.16-0.51-2.35-1.1-3.57-1.75l0.52-1.31
			c1.2,0.39,2.23,0.7,3.1,0.92c0.86,0.22,1.74,0.33,2.64,0.33c0.81,0,1.72-0.21,2.74-0.64c1.02-0.43,2.04-0.98,3.08-1.67
			c1.04-0.69,2.05-1.45,3.05-2.29c0.99-0.84,1.88-1.67,2.65-2.49c0.78-0.82,1.4-1.59,1.87-2.33c0.47-0.73,0.7-1.32,0.7-1.75
			c0-0.28-0.21-0.73-0.64-1.33c-0.43-0.6-0.97-1.26-1.62-1.97c-0.66-0.71-1.37-1.41-2.15-2.1c-0.78-0.69-1.5-1.26-2.18-1.72
			L247.48,386.09z"/>
		<path class="st3" d="M264.33,400.64c-0.31,0-0.6-0.05-0.88-0.15c-0.28-0.1-0.55-0.22-0.8-0.38c-0.25-0.15-0.47-0.31-0.66-0.46
			c-0.19-0.15-0.32-0.3-0.41-0.43c-0.37-0.46-0.62-1.03-0.75-1.7c-0.13-0.68-0.24-1.51-0.33-2.49c-0.37-4.26-0.72-8.6-1.05-13.01
			c-0.33-4.41-0.68-8.79-1.05-13.14l4.26-6.16l1.64,29.33c0.04,0.5,0.15,0.93,0.33,1.28c0.17,0.35,0.52,0.52,1.05,0.52h5.83v6.78
			H264.33z"/>
		<path class="st3" d="M297.79,400.64c-1.57,0-2.8-0.1-3.69-0.31c-0.88-0.21-1.54-0.54-1.97-1c-0.43-0.46-0.69-1.06-0.79-1.8
			c-0.1-0.74-0.15-1.65-0.15-2.72v-0.95c-1.25,1.31-2.45,2.4-3.6,3.28c-1.16,0.87-2.32,1.57-3.49,2.1c-1.17,0.52-2.38,0.89-3.62,1.1
			c-1.25,0.21-2.59,0.31-4.03,0.31h-4.95c-0.13,0-0.33-0.05-0.61-0.16c-0.27-0.11-0.55-0.27-0.82-0.48
			c-0.27-0.21-0.51-0.47-0.72-0.79c-0.21-0.32-0.31-0.67-0.31-1.07v-1.8c0-0.41,0.1-0.78,0.31-1.1c0.21-0.32,0.45-0.58,0.72-0.79
			c0.27-0.21,0.55-0.36,0.82-0.46c0.27-0.1,0.48-0.15,0.61-0.15h7.57c1.53,0,2.92-0.17,4.18-0.51c1.26-0.34,2.38-0.74,3.38-1.2
			c0.99-0.46,1.86-0.93,2.61-1.41c0.74-0.48,1.37-0.86,1.87-1.15l-1.44-0.36c-0.55-0.13-1.21-0.31-2-0.52
			c-0.79-0.22-1.61-0.43-2.47-0.62c-0.86-0.2-1.72-0.37-2.57-0.51c-0.85-0.14-1.62-0.21-2.29-0.21c-0.46,0-0.86,0.09-1.2,0.28
			c-0.34,0.19-0.63,0.41-0.87,0.69c-0.24,0.27-0.45,0.56-0.62,0.87c-0.18,0.31-0.33,0.57-0.46,0.79l-1.18-0.66
			c0.42-1.4,0.83-2.64,1.25-3.72c0.42-1.08,0.87-1.99,1.36-2.72c0.49-0.73,1.03-1.29,1.62-1.67c0.59-0.38,1.27-0.57,2.03-0.57
			c0.98,0,2.12,0.14,3.41,0.41c1.29,0.27,2.68,0.61,4.16,1c2.05,0.55,4.31,1.07,6.77,1.56c2.46,0.49,5.18,0.74,8.18,0.74l-2.33,6.88
			c-0.72,0-1.48-0.04-2.28-0.11c-0.8-0.08-1.51-0.17-2.15-0.28c-1.11,0-2.02,0.13-2.7,0.38c-0.69,0.25-1.34,0.56-1.95,0.93
			c0.13,0.66,0.54,1.1,1.21,1.34c0.68,0.24,1.66,0.36,2.95,0.36h10.09v6.78H297.79z M287.46,411.79l-5.41-3.31l3.51-4.69l5.41,3.38
			L287.46,411.79z"/>
		<path class="st3" d="M320.17,400.64c-0.79,0-1.41-0.03-1.88-0.1c-0.47-0.07-0.87-0.23-1.2-0.49c-0.33-0.26-0.61-0.66-0.84-1.18
			c-0.23-0.52-0.49-1.25-0.77-2.16h-0.46l-2.16,3.93h-5.24c-0.22,0-0.5-0.05-0.85-0.15c-0.35-0.1-0.69-0.25-1.02-0.44
			s-0.61-0.45-0.85-0.75c-0.24-0.31-0.36-0.66-0.36-1.05v-1.9c0-0.41,0.12-0.78,0.36-1.08c0.24-0.31,0.52-0.56,0.85-0.77
			c0.33-0.21,0.66-0.37,1-0.48c0.34-0.11,0.62-0.16,0.84-0.16h6.36l0.88-7.9l5.08-2.72l-1.41,8.59c0.07,0.44,0.21,0.79,0.43,1.07
			c0.22,0.27,0.49,0.48,0.8,0.62c0.32,0.14,0.68,0.24,1.08,0.28c0.4,0.04,0.82,0.07,1.26,0.07h3.9v6.78H320.17z M318.83,380.29
			l-3.97-2.36l-1.8,2.36l-4.92-2.92l3.38-4.49l3.9,2.43l1.87-2.43l4.92,3.02L318.83,380.29z"/>
		<path class="st3" d="M325.97,400.64c-0.28,0-0.6-0.05-0.93-0.16c-0.34-0.11-0.66-0.27-0.95-0.48c-0.3-0.21-0.55-0.47-0.75-0.79
			c-0.21-0.32-0.31-0.67-0.31-1.07v-1.8c0-0.41,0.1-0.78,0.31-1.1c0.21-0.32,0.46-0.58,0.75-0.79c0.29-0.21,0.61-0.36,0.95-0.46
			c0.34-0.1,0.65-0.15,0.93-0.15h8.98l-2.29-22.97c-0.52-0.55-0.87-1.08-1.05-1.61c-0.18-0.52-0.26-1.1-0.26-1.74l3.74-4.82h0.59
			c0,0.5,0.08,0.95,0.25,1.34s0.45,0.81,0.87,1.25c0.41,0.44,0.99,0.94,1.72,1.51c0.73,0.57,1.67,1.28,2.8,2.13l-3.87,4.82
			l1.21,19.5l-2.39,7.37H325.97z"/>
		<path class="st3" d="M349.05,401.53l-2.65-31.89l4.85-6.92c0.2,3.89,0.37,7.28,0.51,10.16c0.14,2.88,0.26,5.36,0.36,7.44
			s0.17,3.8,0.23,5.16c0.05,1.37,0.1,2.45,0.13,3.26c0.03,0.81,0.05,1.4,0.07,1.77c0.01,0.37,0.02,0.61,0.02,0.72
			c0,1-0.08,2.02-0.25,3.05c-0.16,1.03-0.38,2-0.66,2.92c-0.27,0.92-0.6,1.75-0.97,2.51c-0.37,0.75-0.75,1.36-1.15,1.82H349.05z"/>
		<path class="st3" d="M376.15,390.84c-0.81,1.77-1.43,3.4-1.85,4.9c-0.43,1.5-0.64,2.97-0.64,4.41c0,1,0.23,1.9,0.69,2.69
			c0.46,0.79,1.06,1.45,1.82,2c0.75,0.55,1.62,0.96,2.61,1.25c0.98,0.28,2,0.43,3.05,0.43c1.4,0,2.85-0.1,4.34-0.31
			c1.5-0.21,2.93-0.48,4.29-0.82c1.36-0.34,2.61-0.72,3.72-1.15c1.11-0.43,1.99-0.86,2.62-1.29c-0.52-0.17-1.15-0.31-1.88-0.41
			c-0.73-0.1-1.7-0.2-2.9-0.31c-1.22-0.11-2.27-0.27-3.13-0.48c-0.86-0.21-1.57-0.49-2.11-0.84c-0.55-0.35-0.95-0.78-1.2-1.28
			c-0.25-0.5-0.38-1.1-0.38-1.8c0-0.41,0.08-0.91,0.23-1.49c0.15-0.58,0.35-1.14,0.59-1.67c0.24-0.53,0.51-0.99,0.8-1.36
			c0.29-0.37,0.58-0.56,0.87-0.56c0.31,0,0.54,0.13,0.7,0.38c0.16,0.25,0.25,0.74,0.25,1.46c0,0.15,0.08,0.31,0.23,0.46
			c0.15,0.15,0.44,0.31,0.85,0.48c0.42,0.16,0.99,0.33,1.72,0.49c0.73,0.16,1.69,0.33,2.87,0.51c0.92,0.13,1.71,0.28,2.38,0.46
			c0.67,0.17,1.22,0.42,1.67,0.72c0.45,0.31,0.78,0.72,1,1.23c0.22,0.51,0.33,1.16,0.33,1.95c0,0.5-0.05,1.05-0.15,1.66
			c-0.1,0.6-0.23,1.22-0.39,1.85c-0.16,0.63-0.37,1.27-0.61,1.9c-0.24,0.63-0.49,1.22-0.75,1.77c-0.9,0.66-1.97,1.31-3.23,1.95
			s-2.63,1.22-4.11,1.74c-1.49,0.51-3.05,0.93-4.69,1.25c-1.64,0.32-3.29,0.48-4.95,0.48c-2.08,0-3.8-0.3-5.18-0.88
			c-1.38-0.59-2.47-1.36-3.29-2.31c-0.82-0.95-1.39-2.03-1.72-3.23c-0.33-1.2-0.49-2.4-0.49-3.6c0-1.4,0.15-2.71,0.44-3.93
			c0.3-1.22,0.68-2.38,1.15-3.46c0.47-1.08,0.98-2.1,1.54-3.05c0.56-0.95,1.1-1.84,1.62-2.67L376.15,390.84z M389.03,422.96
			l-3.97-2.36l-1.8,2.36l-4.92-2.92l3.38-4.49l3.9,2.43l1.87-2.43l4.92,3.02L389.03,422.96z"/>
		<path class="st3" d="M409.71,400.64c-0.92,0-1.7-0.13-2.36-0.38c-0.66-0.25-1.23-0.62-1.72-1.1c-0.49-0.48-0.93-1.08-1.33-1.79
			c-0.39-0.71-0.8-1.51-1.21-2.41c-0.37-0.81-0.74-1.52-1.1-2.13c-0.36-0.61-0.76-1.12-1.2-1.52c-0.44-0.4-0.93-0.7-1.48-0.9
			c-0.55-0.2-1.19-0.3-1.93-0.3c-1.03,0-2.06,0.17-3.11,0.51c-1.05,0.34-1.99,0.74-2.82,1.21c-0.83,0.47-1.51,0.96-2.03,1.46
			c-0.52,0.5-0.79,0.93-0.79,1.28c0,0.52-0.1,1.08-0.31,1.67c-0.21,0.59-0.46,1.14-0.75,1.64c-0.3,0.5-0.6,0.92-0.92,1.26
			c-0.32,0.34-0.57,0.51-0.77,0.51c-0.17,0-0.33-0.13-0.48-0.39c-0.14-0.26-0.21-0.74-0.21-1.44c0-0.96,0.22-1.98,0.66-3.05
			c0.44-1.07,1.03-2.12,1.77-3.15c0.74-1.03,1.59-2.01,2.56-2.95c0.96-0.94,1.96-1.76,3-2.47s2.08-1.27,3.13-1.69
			c1.05-0.41,2.02-0.62,2.92-0.62c0.94,0,1.74,0.11,2.41,0.33c0.67,0.22,1.26,0.57,1.79,1.07s1,1.14,1.44,1.93
			c0.44,0.8,0.87,1.78,1.31,2.93c0.17,0.48,0.37,0.95,0.59,1.39c0.22,0.45,0.49,0.84,0.8,1.18c0.32,0.34,0.7,0.61,1.16,0.82
			c0.46,0.21,1.02,0.31,1.67,0.31v6.78H409.71z M405.12,411.07l-5.41-3.31l3.51-4.69l5.41,3.38L405.12,411.07z"/>
		<path class="st3" d="M422.95,400.64c-0.79,0-1.41-0.03-1.88-0.1c-0.47-0.07-0.87-0.23-1.2-0.49c-0.33-0.26-0.61-0.66-0.84-1.18
			c-0.23-0.52-0.49-1.25-0.77-2.16h-0.46l-2.16,3.93h-5.24c-0.22,0-0.5-0.05-0.85-0.15c-0.35-0.1-0.69-0.25-1.02-0.44
			s-0.61-0.45-0.85-0.75c-0.24-0.31-0.36-0.66-0.36-1.05v-1.9c0-0.41,0.12-0.78,0.36-1.08c0.24-0.31,0.52-0.56,0.85-0.77
			c0.33-0.21,0.66-0.37,1-0.48c0.34-0.11,0.62-0.16,0.84-0.16h6.36l0.88-7.9l5.08-2.72l-1.41,8.59c0.07,0.44,0.21,0.79,0.43,1.07
			c0.22,0.27,0.49,0.48,0.8,0.62c0.32,0.14,0.68,0.24,1.08,0.28c0.4,0.04,0.82,0.07,1.26,0.07h3.9v6.78H422.95z M421.61,411.23
			l-3.97-2.36l-1.8,2.36l-4.92-2.92l3.38-4.49l3.9,2.42l1.87-2.42l4.92,3.02L421.61,411.23z"/>
		<path class="st3" d="M442.48,400.64c-0.7,0-1.29-0.03-1.77-0.1c-0.48-0.07-0.9-0.23-1.25-0.49c-0.35-0.26-0.65-0.64-0.9-1.13
			c-0.25-0.49-0.5-1.16-0.74-2.02h-0.46l-2.06,3.74h-6.55c-0.31,0-0.63-0.05-0.98-0.16c-0.35-0.11-0.68-0.26-1-0.46
			c-0.32-0.2-0.58-0.41-0.79-0.66c-0.21-0.24-0.31-0.49-0.31-0.75v-2.59c0-0.33,0.1-0.63,0.31-0.9c0.21-0.27,0.47-0.5,0.79-0.69
			c0.32-0.19,0.65-0.33,1-0.43c0.35-0.1,0.67-0.15,0.95-0.15h7.41l-1.05-11.54l4.33-6.16c0.02,0.48,0.06,1.13,0.11,1.93
			c0.05,0.81,0.11,1.7,0.16,2.69c0.05,0.98,0.11,2.02,0.18,3.1c0.07,1.08,0.14,2.14,0.21,3.16c0.08,1.03,0.14,1.99,0.2,2.88
			c0.05,0.9,0.1,1.66,0.15,2.29c0.04,0.59,0.3,1.01,0.75,1.26c0.46,0.25,1.07,0.38,1.84,0.38h3.9v6.78H442.48z M437.63,415.72
			l-5.41-3.31l3.51-4.69l5.41,3.38L437.63,415.72z"/>
		<path class="st3" d="M462.7,400.64c-0.83,0.85-1.61,1.85-2.34,3c-0.73,1.15-1.34,2.33-1.82,3.56l-2.29-0.79
			c0.13-0.52,0.3-1.05,0.51-1.59c0.21-0.54,0.43-1.06,0.66-1.57c0.23-0.51,0.45-0.99,0.67-1.44c0.22-0.45,0.41-0.84,0.59-1.16h-3.21
			c-0.46,0-0.86-0.13-1.2-0.39c-0.34-0.26-0.61-0.56-0.8-0.88c-0.74,0.37-1.68,0.68-2.8,0.92c-1.13,0.24-2.38,0.36-3.75,0.36
			c-0.26,0-0.55-0.05-0.85-0.16c-0.31-0.11-0.59-0.27-0.85-0.48c-0.26-0.21-0.48-0.47-0.66-0.79c-0.17-0.32-0.26-0.67-0.26-1.07
			v-1.8c0-0.35,0.08-0.68,0.25-0.98c0.16-0.31,0.38-0.57,0.64-0.79c0.26-0.22,0.55-0.39,0.85-0.52c0.31-0.13,0.6-0.2,0.88-0.2
			c2.91,0,5.16-0.28,6.77-0.84c1.61-0.56,2.75-1.29,3.42-2.21c0.59-0.79,1.09-1.64,1.49-2.56c0.4-0.92,0.72-1.67,0.93-2.26
			l2.29,0.79c-0.15,0.79-0.35,1.58-0.59,2.38c-0.24,0.8-0.49,1.5-0.75,2.11c-0.22,0.5-0.46,1.01-0.74,1.52
			c-0.27,0.51-0.48,0.87-0.61,1.07h4.29c0.94-0.83,1.97-1.7,3.1-2.62c1.13-0.92,2.28-1.82,3.47-2.72c1.19-0.9,2.4-1.75,3.62-2.56
			c1.22-0.81,2.41-1.52,3.56-2.13c1.15-0.61,2.23-1.1,3.24-1.46c1.02-0.36,1.92-0.54,2.7-0.54c0.46,0,1,0.13,1.62,0.38
			c0.62,0.25,1.26,0.58,1.92,0.98c0.66,0.4,1.3,0.87,1.93,1.41c0.63,0.54,1.2,1.09,1.7,1.67c0.5,0.58,0.91,1.16,1.21,1.74
			c0.31,0.58,0.46,1.12,0.46,1.62c0,0.72-0.11,1.46-0.33,2.21c-0.22,0.75-0.46,1.43-0.72,2.02h5.96v6.78H462.7z M472.57,379.96
			l-5.41-3.31l3.51-4.69l5.41,3.38L472.57,379.96z M486.53,393.86c0.09-0.09,0.19-0.21,0.3-0.36c0.11-0.15,0.16-0.28,0.16-0.39
			c0-0.13-0.11-0.36-0.33-0.67c-0.22-0.32-0.52-0.68-0.9-1.1c-0.38-0.41-0.83-0.85-1.34-1.29c-0.51-0.45-1.05-0.86-1.62-1.23
			c-0.57-0.37-1.15-0.68-1.74-0.92c-0.59-0.24-1.16-0.36-1.7-0.36c-0.59,0-1.36,0.22-2.31,0.66c-0.95,0.44-1.95,0.97-3,1.61
			c-1.05,0.63-2.07,1.32-3.06,2.05c-0.99,0.73-1.82,1.4-2.47,2.02H486.53z"/>
		<path class="st3" d="M496.89,400.64c-0.28,0-0.6-0.05-0.93-0.16c-0.34-0.11-0.66-0.27-0.95-0.48c-0.3-0.21-0.55-0.47-0.75-0.79
			c-0.21-0.32-0.31-0.67-0.31-1.07v-1.8c0-0.41,0.1-0.78,0.31-1.1c0.21-0.32,0.46-0.58,0.75-0.79c0.29-0.21,0.61-0.36,0.95-0.46
			c0.34-0.1,0.65-0.15,0.93-0.15h8.98l-2.29-22.97c-0.52-0.55-0.87-1.08-1.05-1.61c-0.18-0.52-0.26-1.1-0.26-1.74l3.74-4.82h0.59
			c0,0.5,0.08,0.95,0.25,1.34s0.45,0.81,0.87,1.25c0.41,0.44,0.99,0.94,1.72,1.51c0.73,0.57,1.67,1.28,2.8,2.13l-3.87,4.82
			l1.21,19.5l-2.39,7.37H496.89z"/>
		<path class="st3" d="M519.96,401.53l-2.65-31.89l4.85-6.92c0.2,3.89,0.37,7.28,0.51,10.16c0.14,2.88,0.26,5.36,0.36,7.44
			c0.1,2.08,0.17,3.8,0.23,5.16c0.05,1.37,0.1,2.45,0.13,3.26s0.05,1.4,0.07,1.77c0.01,0.37,0.02,0.61,0.02,0.72
			c0,1-0.08,2.02-0.25,3.05c-0.16,1.03-0.38,2-0.66,2.92c-0.27,0.92-0.6,1.75-0.97,2.51c-0.37,0.75-0.75,1.36-1.15,1.82H519.96z"/>
		<path class="st3" d="M551.42,372.59l-3.97-2.36l-1.8,2.36l-4.92-2.92l3.38-4.49l3.9,2.43l1.87-2.43l4.92,3.02L551.42,372.59z
			 M560.57,400.64c-0.44,0-0.86-0.07-1.28-0.21c-0.42-0.14-0.8-0.32-1.16-0.54c-0.36-0.22-0.69-0.47-1-0.75
			c-0.31-0.28-0.57-0.57-0.79-0.85c-0.44-0.55-0.8-1.38-1.08-2.49c-0.28-1.11-0.48-2.32-0.59-3.6h-0.85l-2.65,4.06
			c-0.44-0.09-0.95-0.19-1.52-0.31c-0.58-0.12-1.17-0.25-1.77-0.39c-0.6-0.14-1.2-0.29-1.8-0.44c-0.6-0.15-1.14-0.31-1.62-0.46
			c-0.72-0.24-1.31-0.48-1.75-0.7c-0.45-0.23-0.79-0.49-1.03-0.77c-0.24-0.28-0.4-0.59-0.49-0.92c-0.09-0.33-0.13-0.71-0.13-1.15
			c0-0.44,0.14-1.03,0.43-1.79c0.28-0.75,0.62-1.53,1.02-2.33c0.39-0.8,0.8-1.54,1.21-2.23c0.42-0.69,0.75-1.18,1.02-1.49
			c0.22-0.26,0.55-0.51,0.98-0.75c0.44-0.24,0.92-0.48,1.46-0.71c0.54-0.23,1.11-0.46,1.72-0.69c0.61-0.23,1.2-0.45,1.77-0.67
			c0.57-0.22,1.14-0.43,1.72-0.64c0.58-0.21,1.12-0.42,1.62-0.64c-0.02-0.2-0.04-0.43-0.07-0.71c-0.02-0.27-0.04-0.56-0.05-0.85
			c-0.01-0.3-0.03-0.58-0.05-0.85c-0.02-0.27-0.03-0.5-0.03-0.67l3.44-4.03l0.43,6.92c0.02,0.31,0.05,0.74,0.08,1.31
			c0.03,0.57,0.08,1.22,0.15,1.95c0.07,0.73,0.13,1.52,0.2,2.38c0.07,0.85,0.14,1.7,0.21,2.54c0.08,0.84,0.15,1.65,0.23,2.44
			c0.08,0.79,0.16,1.49,0.25,2.1c0.04,0.33,0.15,0.63,0.33,0.9c0.17,0.27,0.36,0.46,0.56,0.57c0.31,0.22,0.66,0.39,1.07,0.51
			c0.4,0.12,0.98,0.18,1.72,0.18h2.49v6.78H560.57z M554.4,389.11l-0.26-7.21c-0.09,0.17-0.19,0.38-0.3,0.61
			c-0.11,0.23-0.22,0.46-0.34,0.7c-0.12,0.24-0.24,0.46-0.36,0.66c-0.12,0.2-0.23,0.33-0.34,0.39c-0.11,0.07-0.34,0.18-0.69,0.33
			c-0.35,0.15-0.77,0.34-1.26,0.56c-0.49,0.22-1.02,0.45-1.57,0.69s-1.1,0.46-1.64,0.67c-0.54,0.21-1.02,0.4-1.44,0.57
			c-0.43,0.17-0.75,0.29-0.97,0.36l-0.23,0.43c0.52,0.18,1.13,0.34,1.82,0.51c0.69,0.16,1.41,0.32,2.16,0.46
			c0.75,0.14,1.52,0.27,2.29,0.39s1.51,0.22,2.21,0.31L554.4,389.11z"/>
		<path class="st3" d="M589.83,368.72c-1.42,0.57-2.96,1.19-4.6,1.85c-1.65,0.67-3.32,1.34-5.01,2.03
			c-1.69,0.69-3.36,1.38-5.01,2.08c-1.65,0.7-3.18,1.36-4.6,1.97c0.98,0.7,2.11,1.5,3.38,2.39c1.27,0.9,2.53,1.84,3.8,2.84
			c1.27,0.99,2.44,2,3.52,3.02c1.08,1.02,1.94,1.98,2.57,2.9c0.57,0.81,1.02,1.61,1.34,2.39c0.33,0.79,0.49,1.73,0.49,2.82
			c0,0.66-0.07,1.31-0.2,1.97c-0.13,0.66-0.3,1.31-0.51,1.97c-0.21,0.66-0.43,1.29-0.67,1.92c-0.24,0.62-0.47,1.22-0.69,1.79h-18.71
			c-0.26,0-0.55-0.05-0.85-0.16c-0.31-0.11-0.59-0.27-0.85-0.48c-0.26-0.21-0.48-0.47-0.66-0.79c-0.17-0.32-0.26-0.67-0.26-1.07
			v-1.8c0-0.41,0.09-0.78,0.26-1.1c0.18-0.32,0.39-0.58,0.66-0.79c0.26-0.21,0.55-0.36,0.85-0.46c0.31-0.1,0.59-0.15,0.85-0.15
			h17.73c-0.09-0.41-0.32-0.86-0.7-1.33c-0.38-0.47-0.87-0.95-1.46-1.44c-0.59-0.49-1.25-0.99-1.97-1.51
			c-0.72-0.51-1.46-1.03-2.23-1.54c-0.77-0.51-1.52-1-2.28-1.47c-0.75-0.47-1.45-0.92-2.08-1.36l-0.2,1.54
			c-0.66-0.33-1.31-0.66-1.95-1c-0.65-0.34-1.29-0.66-1.95-0.97c-0.76-0.37-1.35-0.96-1.75-1.77c-0.4-0.81-0.61-1.8-0.61-2.98
			c0-1.03,0.21-2.15,0.62-3.36c0.41-1.21,1.04-2.49,1.87-3.82c0.22-0.39,0.73-0.84,1.52-1.34c0.8-0.5,1.81-1.05,3.03-1.64
			c1.22-0.59,2.63-1.22,4.23-1.9c1.59-0.68,3.3-1.39,5.11-2.13c0.57-0.22,1.31-0.51,2.21-0.88c0.91-0.37,1.85-0.75,2.82-1.15
			c0.97-0.39,1.9-0.78,2.79-1.15c0.88-0.37,1.59-0.67,2.11-0.89L589.83,368.72z"/>
		<path class="st3" d="M607.76,400.64c-0.5,0-1.03-0.1-1.59-0.3c-0.56-0.2-1.08-0.58-1.56-1.15l-0.52,0.3
			c0,0.87-0.13,1.87-0.39,2.98c-0.26,1.11-0.64,2.26-1.13,3.42c-0.49,1.17-1.07,2.32-1.74,3.44c-0.67,1.13-1.41,2.12-2.23,3
			c-0.82,0.87-1.69,1.58-2.62,2.11c-0.93,0.54-1.9,0.8-2.9,0.8c-0.66,0-1.43-0.1-2.33-0.31c-0.9-0.21-1.87-0.5-2.93-0.88
			c-1.06-0.38-2.18-0.84-3.36-1.38c-1.18-0.54-2.38-1.13-3.61-1.79l0.56-1.31c0.61,0.2,1.17,0.37,1.67,0.52
			c0.5,0.15,0.97,0.28,1.39,0.38c0.43,0.1,0.84,0.17,1.23,0.21c0.39,0.04,0.8,0.07,1.21,0.07c0.9,0,1.88-0.2,2.95-0.61
			c1.07-0.4,2.15-0.93,3.23-1.59c1.08-0.66,2.12-1.38,3.13-2.18c1-0.8,1.9-1.59,2.67-2.39c0.78-0.8,1.4-1.54,1.87-2.23
			c0.47-0.69,0.7-1.24,0.7-1.65c0-0.09-0.06-0.27-0.18-0.54c-0.12-0.27-0.28-0.58-0.48-0.93c-0.2-0.35-0.42-0.72-0.67-1.11
			c-0.25-0.39-0.51-0.75-0.77-1.08c-0.26-0.33-0.54-0.69-0.82-1.08c-0.28-0.39-0.57-0.8-0.85-1.21c-0.28-0.42-0.55-0.81-0.8-1.2
			c-0.25-0.38-0.48-0.72-0.67-1l3.41-6.46c0.24,0.39,0.51,0.84,0.8,1.33c0.3,0.49,0.52,0.86,0.67,1.1c0.61,0.94,1.17,1.78,1.69,2.51
			c0.51,0.73,1.03,1.36,1.56,1.87c0.52,0.51,1.09,0.9,1.69,1.16c0.6,0.26,1.29,0.39,2.08,0.39h1.8v6.78H607.76z"/>
		<path class="st3" d="M644.99,384.52c0.15,0.33,0.35,0.81,0.59,1.44c0.24,0.63,0.48,1.34,0.7,2.13c0.23,0.79,0.43,1.6,0.61,2.43
			c0.17,0.83,0.26,1.59,0.26,2.29c0,0.98-0.11,1.98-0.33,2.98c-0.22,1.01-0.56,1.92-1.02,2.75c-0.52,0.92-0.98,1.63-1.38,2.13
			c-0.39,0.5-0.84,0.75-1.34,0.75c-0.33,0-0.84-0.13-1.54-0.39c-0.7-0.26-1.46-0.61-2.28-1.03c-0.82-0.43-1.64-0.91-2.46-1.44
			c-0.82-0.53-1.54-1.06-2.15-1.59c-0.55,0.5-1.28,0.93-2.21,1.28c-0.93,0.35-1.91,0.63-2.95,0.84c-1.04,0.21-2.06,0.35-3.06,0.44
			c-1.01,0.09-1.87,0.13-2.59,0.13c-0.87,0-1.46-0.19-1.75-0.56c-0.29-0.37-0.44-0.81-0.44-1.31h-0.3c-0.44,0.48-1.08,0.9-1.92,1.25
			c-0.84,0.35-1.79,0.64-2.83,0.88c-1.05,0.24-2.16,0.42-3.33,0.54c-1.17,0.12-2.29,0.18-3.36,0.18c-0.17,0-0.4-0.03-0.69-0.1
			c-0.28-0.07-0.57-0.17-0.87-0.33c-0.3-0.15-0.55-0.34-0.75-0.56c-0.21-0.22-0.31-0.49-0.31-0.82v-3.31c0-0.2,0.09-0.4,0.26-0.61
			c0.18-0.21,0.39-0.39,0.66-0.54c0.26-0.15,0.55-0.28,0.85-0.38c0.31-0.1,0.59-0.15,0.85-0.15c0.39,0,0.85-0.01,1.38-0.02
			c0.52-0.01,1.04-0.04,1.54-0.08c0.87-0.07,1.81-0.17,2.82-0.31c1-0.14,1.97-0.33,2.88-0.56c0.92-0.23,1.74-0.51,2.46-0.85
			c0.72-0.34,1.25-0.74,1.57-1.2c0.63-0.92,1.21-1.84,1.74-2.77c0.52-0.93,1-1.99,1.44-3.2l2.23,0.79c-0.31,1.2-0.63,2.29-0.97,3.28
			c-0.34,0.98-0.69,1.85-1.07,2.59c-0.07,0.13-0.14,0.3-0.23,0.49c-0.09,0.2-0.16,0.35-0.23,0.46c0.04,0.09,0.16,0.16,0.36,0.23
			c0.2,0.07,0.42,0.1,0.66,0.1c0.55,0,1.16-0.03,1.84-0.08c0.68-0.05,1.34-0.14,2-0.26c0.66-0.12,1.27-0.27,1.85-0.44
			c0.58-0.17,1.04-0.38,1.39-0.62c0.39-0.28,0.76-0.69,1.11-1.23c0.35-0.53,0.67-1.12,0.97-1.75c0.3-0.63,0.56-1.27,0.79-1.9
			c0.23-0.63,0.42-1.18,0.57-1.64l2.16,0.62c-0.11,0.57-0.23,1.15-0.36,1.74c-0.13,0.59-0.27,1.16-0.41,1.72
			c-0.14,0.56-0.29,1.09-0.44,1.59c-0.15,0.5-0.31,0.95-0.46,1.34c0.33,0.28,0.8,0.62,1.41,1c0.61,0.38,1.23,0.75,1.85,1.1
			c0.62,0.35,1.2,0.65,1.74,0.9c0.53,0.25,0.89,0.38,1.06,0.38c0.17,0,0.32-0.03,0.43-0.08c0.11-0.05,0.16-0.14,0.16-0.25
			c0-0.04-0.01-0.12-0.02-0.23c-0.01-0.11-0.03-0.25-0.05-0.43c-0.07-0.5-0.24-1.2-0.52-2.1c-0.28-0.9-0.78-1.9-1.47-3.02
			L644.99,384.52z M638.11,380.55l-3.97-2.36l-1.8,2.36l-4.92-2.92l3.38-4.49l3.9,2.42l1.87-2.42l4.92,3.02L638.11,380.55z
			 M634.44,373.67l-5.01-3.05l3.28-4.36l5.01,3.11L634.44,373.67z"/>
	</g>
	<g>
		<path class="st3" d="M220.76,458.51h-5.08l-2.02-5.26h-9.25l-1.91,5.26h-4.96l9.02-23.15h4.94L220.76,458.51z M212.15,449.35
			l-3.19-8.59l-3.13,8.59H212.15z"/>
		<path class="st3" d="M223.2,458.51v-23.15h4.44v23.15H223.2z"/>
		<path class="st3" d="M232.21,435.36h8.54c1.93,0,3.39,0.15,4.41,0.44c1.36,0.4,2.52,1.11,3.49,2.13c0.97,1.02,1.71,2.27,2.21,3.75
			c0.51,1.48,0.76,3.3,0.76,5.47c0,1.91-0.24,3.55-0.71,4.93c-0.58,1.68-1.41,3.05-2.48,4.09c-0.81,0.79-1.91,1.41-3.28,1.85
			c-1.03,0.33-2.41,0.49-4.14,0.49h-8.79V435.36z M236.88,439.28v15.33h3.49c1.31,0,2.25-0.07,2.83-0.22
			c0.76-0.19,1.39-0.51,1.89-0.96c0.5-0.45,0.91-1.2,1.22-2.23c0.32-1.04,0.47-2.45,0.47-4.24c0-1.79-0.16-3.16-0.47-4.12
			s-0.76-1.71-1.33-2.24c-0.57-0.54-1.29-0.9-2.16-1.09c-0.65-0.15-1.93-0.22-3.84-0.22H236.88z"/>
		<path class="st3" d="M259.96,435.36v8.51c1.43-1.67,3.14-2.51,5.13-2.51c1.02,0,1.94,0.19,2.76,0.57
			c0.82,0.38,1.44,0.86,1.86,1.45c0.42,0.59,0.7,1.24,0.85,1.96c0.15,0.72,0.23,1.83,0.23,3.33v9.84h-4.44v-8.86
			c0-1.76-0.08-2.87-0.25-3.35c-0.17-0.47-0.47-0.85-0.89-1.13c-0.43-0.28-0.96-0.42-1.6-0.42c-0.74,0-1.39,0.18-1.97,0.54
			c-0.58,0.36-1,0.9-1.27,1.62c-0.27,0.72-0.4,1.79-0.4,3.2v8.4h-4.44v-23.15H259.96z"/>
		<path class="st3" d="M286.33,458.51V456c-0.61,0.9-1.41,1.6-2.41,2.12c-0.99,0.52-2.04,0.77-3.15,0.77
			c-1.13,0-2.14-0.25-3.03-0.74s-1.54-1.19-1.94-2.08c-0.4-0.89-0.6-2.13-0.6-3.71v-10.61h4.44v7.71c0,2.36,0.08,3.8,0.24,4.33
			c0.16,0.53,0.46,0.95,0.89,1.26c0.43,0.31,0.98,0.47,1.64,0.47c0.76,0,1.44-0.21,2.04-0.62c0.6-0.42,1.01-0.93,1.23-1.55
			c0.22-0.62,0.33-2.12,0.33-4.52v-7.07h4.44v16.77H286.33z"/>
		<path class="st3" d="M294.86,458.51v-23.15h4.44v8.34c1.37-1.56,2.99-2.34,4.86-2.34c2.04,0,3.73,0.74,5.07,2.22
			c1.34,1.48,2.01,3.6,2.01,6.37c0,2.86-0.68,5.07-2.04,6.62c-1.36,1.55-3.02,2.32-4.97,2.32c-0.96,0-1.9-0.24-2.83-0.72
			c-0.93-0.48-1.73-1.19-2.41-2.12v2.46H294.86z M299.26,449.76c0,1.74,0.27,3.02,0.82,3.85c0.77,1.18,1.79,1.77,3.06,1.77
			c0.98,0,1.81-0.42,2.5-1.26c0.69-0.84,1.03-2.15,1.03-3.95c0-1.92-0.35-3.3-1.04-4.14c-0.69-0.85-1.58-1.27-2.67-1.27
			c-1.06,0-1.95,0.41-2.65,1.24C299.62,446.82,299.26,448.08,299.26,449.76z"/>
		<path class="st3" d="M318.12,446.85l-4.03-0.73c0.45-1.62,1.23-2.82,2.34-3.6c1.11-0.78,2.75-1.17,4.93-1.17
			c1.98,0,3.45,0.23,4.42,0.7s1.65,1.06,2.04,1.78c0.39,0.72,0.59,2.04,0.59,3.97l-0.05,5.18c0,1.47,0.07,2.56,0.21,3.26
			c0.14,0.7,0.41,1.45,0.8,2.25h-4.39c-0.12-0.29-0.26-0.73-0.43-1.31c-0.07-0.26-0.13-0.44-0.16-0.52
			c-0.76,0.74-1.57,1.29-2.43,1.66c-0.86,0.37-1.78,0.55-2.76,0.55c-1.73,0-3.09-0.47-4.08-1.41c-0.99-0.94-1.49-2.12-1.49-3.55
			c0-0.95,0.23-1.79,0.68-2.53c0.45-0.74,1.09-1.31,1.9-1.71c0.82-0.39,1.99-0.74,3.53-1.03c2.07-0.39,3.51-0.75,4.31-1.09v-0.44
			c0-0.85-0.21-1.46-0.63-1.82c-0.42-0.36-1.22-0.54-2.38-0.54c-0.79,0-1.41,0.16-1.85,0.47
			C318.75,445.53,318.39,446.08,318.12,446.85z M324.05,450.45c-0.57,0.19-1.47,0.42-2.7,0.68c-1.23,0.26-2.04,0.52-2.42,0.77
			c-0.58,0.41-0.87,0.93-0.87,1.56c0,0.62,0.23,1.16,0.69,1.61c0.46,0.45,1.05,0.68,1.77,0.68c0.8,0,1.56-0.26,2.29-0.79
			c0.54-0.4,0.89-0.89,1.06-1.47c0.12-0.38,0.17-1.1,0.17-2.16V450.45z"/>
		<path class="st3" d="M332.78,439.47v-4.11h4.44v4.11H332.78z M332.78,458.51v-16.77h4.44v16.77H332.78z"/>
		<path class="st3" d="M341.58,458.51v-23.15h4.44v8.34c1.37-1.56,2.99-2.34,4.86-2.34c2.04,0,3.73,0.74,5.07,2.22
			c1.34,1.48,2.01,3.6,2.01,6.37c0,2.86-0.68,5.07-2.04,6.62c-1.36,1.55-3.02,2.32-4.97,2.32c-0.96,0-1.9-0.24-2.83-0.72
			c-0.93-0.48-1.73-1.19-2.41-2.12v2.46H341.58z M345.98,449.76c0,1.74,0.27,3.02,0.82,3.85c0.77,1.18,1.79,1.77,3.06,1.77
			c0.98,0,1.81-0.42,2.5-1.26c0.69-0.84,1.03-2.15,1.03-3.95c0-1.92-0.35-3.3-1.04-4.14c-0.69-0.85-1.58-1.27-2.67-1.27
			c-1.06,0-1.95,0.41-2.65,1.24C346.34,446.82,345.98,448.08,345.98,449.76z"/>
		<path class="st3" d="M361.52,439.47v-4.11h4.44v4.11H361.52z M361.52,458.51v-16.77h4.44v16.77H361.52z"/>
		<path class="st3" d="M384.73,458.51v-19.23h-6.87v-3.92h18.4v3.92h-6.85v19.23H384.73z"/>
		<path class="st3" d="M401.71,458.51h-4.44v-16.77h4.12v2.38c0.71-1.13,1.34-1.87,1.9-2.23c0.56-0.36,1.2-0.54,1.92-0.54
			c1.01,0,1.98,0.28,2.92,0.84l-1.37,3.87c-0.75-0.48-1.44-0.73-2.08-0.73c-0.62,0-1.15,0.17-1.58,0.51
			c-0.43,0.34-0.77,0.96-1.02,1.86c-0.25,0.9-0.37,2.77-0.37,5.62V458.51z"/>
		<path class="st3" d="M413.36,446.85l-4.03-0.73c0.45-1.62,1.23-2.82,2.34-3.6c1.11-0.78,2.75-1.17,4.93-1.17
			c1.98,0,3.45,0.23,4.42,0.7s1.65,1.06,2.04,1.78c0.39,0.72,0.59,2.04,0.59,3.97l-0.05,5.18c0,1.47,0.07,2.56,0.21,3.26
			c0.14,0.7,0.41,1.45,0.8,2.25h-4.39c-0.12-0.29-0.26-0.73-0.43-1.31c-0.07-0.26-0.13-0.44-0.16-0.52
			c-0.76,0.74-1.57,1.29-2.43,1.66c-0.86,0.37-1.78,0.55-2.76,0.55c-1.73,0-3.09-0.47-4.08-1.41c-0.99-0.94-1.49-2.12-1.49-3.55
			c0-0.95,0.23-1.79,0.68-2.53c0.45-0.74,1.09-1.31,1.9-1.71c0.82-0.39,1.99-0.74,3.53-1.03c2.07-0.39,3.51-0.75,4.31-1.09v-0.44
			c0-0.85-0.21-1.46-0.63-1.82c-0.42-0.36-1.22-0.54-2.38-0.54c-0.79,0-1.41,0.16-1.85,0.47
			C413.99,445.53,413.63,446.08,413.36,446.85z M419.3,450.45c-0.57,0.19-1.47,0.42-2.7,0.68c-1.23,0.26-2.04,0.52-2.42,0.77
			c-0.58,0.41-0.87,0.93-0.87,1.56c0,0.62,0.23,1.16,0.69,1.61c0.46,0.45,1.05,0.68,1.77,0.68c0.8,0,1.56-0.26,2.29-0.79
			c0.54-0.4,0.89-0.89,1.06-1.47c0.12-0.38,0.17-1.1,0.17-2.16V450.45z"/>
		<path class="st3" d="M443.41,458.51h-4.12v-2.46c-0.68,0.96-1.49,1.67-2.42,2.14c-0.93,0.47-1.87,0.7-2.82,0.7
			c-1.93,0-3.58-0.78-4.95-2.33c-1.37-1.55-2.06-3.72-2.06-6.5c0-2.84,0.67-5,2.01-6.48c1.34-1.48,3.03-2.22,5.07-2.22
			c1.87,0,3.49,0.78,4.86,2.34v-8.34h4.44V458.51z M431.56,449.76c0,1.79,0.25,3.08,0.74,3.88c0.72,1.16,1.72,1.74,3,1.74
			c1.02,0,1.89-0.43,2.61-1.3c0.72-0.87,1.07-2.17,1.07-3.89c0-1.93-0.35-3.31-1.04-4.16c-0.69-0.85-1.58-1.27-2.67-1.27
			c-1.05,0-1.93,0.42-2.64,1.26C431.92,446.85,431.56,448.1,431.56,449.76z"/>
		<path class="st3" d="M447.78,439.47v-4.11h4.44v4.11H447.78z M447.78,458.51v-16.77h4.44v16.77H447.78z"/>
		<path class="st3" d="M472.02,458.51h-4.44v-8.56c0-1.81-0.09-2.98-0.28-3.51c-0.19-0.53-0.5-0.94-0.92-1.24
			c-0.43-0.29-0.94-0.44-1.54-0.44c-0.77,0-1.46,0.21-2.07,0.63c-0.61,0.42-1.03,0.98-1.26,1.67c-0.23,0.7-0.34,1.98-0.34,3.85v7.6
			h-4.44v-16.77h4.12v2.46c1.46-1.89,3.31-2.84,5.53-2.84c0.98,0,1.87,0.18,2.68,0.53c0.81,0.35,1.42,0.8,1.84,1.35
			c0.42,0.55,0.7,1.17,0.87,1.86c0.16,0.69,0.24,1.69,0.24,2.98V458.51z"/>
		<path class="st3" d="M476.11,459.61l5.07,0.62c0.08,0.59,0.28,0.99,0.58,1.22c0.42,0.32,1.08,0.47,1.99,0.47
			c1.16,0,2.03-0.17,2.61-0.52c0.39-0.23,0.68-0.61,0.88-1.12c0.14-0.37,0.21-1.05,0.21-2.04v-2.45c-1.33,1.81-3,2.72-5.02,2.72
			c-2.25,0-4.04-0.95-5.35-2.86c-1.03-1.51-1.55-3.38-1.55-5.62c0-2.81,0.68-4.96,2.03-6.44c1.35-1.48,3.03-2.23,5.04-2.23
			c2.07,0,3.78,0.91,5.13,2.73v-2.35h4.15v15.05c0,1.98-0.16,3.46-0.49,4.44c-0.33,0.98-0.78,1.75-1.37,2.31
			c-0.59,0.56-1.38,0.99-2.36,1.31c-0.98,0.32-2.23,0.47-3.73,0.47c-2.84,0-4.86-0.49-6.05-1.46c-1.19-0.97-1.78-2.21-1.78-3.7
			C476.09,460,476.1,459.82,476.11,459.61z M480.07,449.78c0,1.78,0.34,3.08,1.03,3.91c0.69,0.83,1.54,1.24,2.55,1.24
			c1.08,0,2-0.42,2.75-1.27c0.75-0.85,1.12-2.1,1.12-3.77c0-1.74-0.36-3.03-1.07-3.87c-0.72-0.84-1.62-1.26-2.72-1.26
			c-1.06,0-1.94,0.41-2.63,1.24C480.41,446.82,480.07,448.08,480.07,449.78z"/>
		<path class="st3" d="M520.1,450l4.53,1.44c-0.69,2.53-1.85,4.4-3.47,5.63c-1.62,1.23-3.67,1.84-6.15,1.84
			c-3.07,0-5.6-1.05-7.58-3.15c-1.98-2.1-2.97-4.97-2.97-8.61c0-3.85,0.99-6.85,2.98-8.98c1.99-2.13,4.6-3.2,7.85-3.2
			c2.83,0,5.13,0.84,6.9,2.51c1.05,0.99,1.84,2.41,2.37,4.26l-4.63,1.11c-0.27-1.2-0.84-2.15-1.71-2.84
			c-0.87-0.69-1.92-1.04-3.17-1.04c-1.72,0-3.11,0.62-4.18,1.85c-1.07,1.23-1.6,3.23-1.6,5.98c0,2.93,0.53,5.01,1.58,6.25
			c1.05,1.24,2.42,1.86,4.11,1.86c1.24,0,2.31-0.39,3.21-1.18C519.06,452.93,519.71,451.69,520.1,450z"/>
		<path class="st3" d="M527.58,449.89c0-1.47,0.36-2.9,1.09-4.28c0.73-1.38,1.76-2.43,3.09-3.16c1.33-0.73,2.82-1.09,4.46-1.09
			c2.54,0,4.62,0.82,6.24,2.47s2.43,3.73,2.43,6.24c0,2.54-0.82,4.64-2.46,6.31c-1.64,1.67-3.7,2.5-6.18,2.5
			c-1.54,0-3-0.35-4.4-1.04c-1.39-0.7-2.46-1.71-3.18-3.06C527.94,453.45,527.58,451.81,527.58,449.89z M532.13,450.12
			c0,1.66,0.39,2.94,1.18,3.82c0.79,0.88,1.76,1.33,2.92,1.33s2.13-0.44,2.91-1.33c0.78-0.88,1.18-2.17,1.18-3.85
			c0-1.64-0.39-2.91-1.18-3.79c-0.78-0.88-1.76-1.33-2.91-1.33s-2.13,0.44-2.92,1.33C532.52,447.19,532.13,448.46,532.13,450.12z"/>
		<path class="st3" d="M548.03,441.74h4.09v2.29c1.46-1.78,3.21-2.67,5.23-2.67c1.07,0,2.01,0.22,2.79,0.66
			c0.79,0.44,1.44,1.11,1.94,2.01c0.74-0.9,1.53-1.56,2.38-2.01c0.85-0.44,1.76-0.66,2.73-0.66c1.23,0,2.27,0.25,3.13,0.75
			c0.85,0.5,1.49,1.23,1.91,2.2c0.31,0.72,0.46,1.87,0.46,3.47v10.72h-4.44v-9.58c0-1.66-0.15-2.74-0.46-3.22
			c-0.41-0.63-1.04-0.95-1.89-0.95c-0.62,0-1.21,0.19-1.75,0.57c-0.55,0.38-0.94,0.93-1.18,1.67c-0.24,0.73-0.36,1.89-0.36,3.47
			v8.05h-4.44v-9.19c0-1.63-0.08-2.68-0.24-3.16c-0.16-0.47-0.4-0.83-0.73-1.06c-0.33-0.23-0.78-0.35-1.35-0.35
			c-0.68,0-1.3,0.18-1.85,0.55c-0.55,0.37-0.94,0.9-1.18,1.59c-0.24,0.69-0.36,1.85-0.36,3.46v8.15h-4.44V441.74z"/>
		<path class="st3" d="M576.99,441.74h4.14v2.46c0.54-0.84,1.26-1.53,2.18-2.05c0.92-0.53,1.93-0.79,3.05-0.79
			c1.95,0,3.6,0.76,4.96,2.29c1.36,1.53,2.04,3.65,2.04,6.38c0,2.8-0.68,4.98-2.05,6.53c-1.37,1.55-3.03,2.33-4.97,2.33
			c-0.93,0-1.77-0.18-2.52-0.55c-0.75-0.37-1.55-1-2.38-1.89v8.45h-4.44V441.74z M581.38,449.84c0,1.88,0.37,3.28,1.12,4.18
			c0.75,0.9,1.66,1.35,2.73,1.35c1.03,0,1.89-0.41,2.57-1.24c0.68-0.83,1.03-2.18,1.03-4.07c0-1.76-0.35-3.06-1.06-3.92
			c-0.71-0.85-1.58-1.28-2.62-1.28c-1.08,0-1.98,0.42-2.7,1.26S581.38,448.2,581.38,449.84z"/>
		<path class="st3" d="M600.18,446.85l-4.03-0.73c0.45-1.62,1.23-2.82,2.34-3.6c1.11-0.78,2.75-1.17,4.93-1.17
			c1.98,0,3.45,0.23,4.42,0.7c0.97,0.47,1.65,1.06,2.04,1.78c0.39,0.72,0.59,2.04,0.59,3.97l-0.05,5.18c0,1.47,0.07,2.56,0.21,3.26
			c0.14,0.7,0.41,1.45,0.8,2.25h-4.39c-0.12-0.29-0.26-0.73-0.43-1.31c-0.07-0.26-0.13-0.44-0.16-0.52
			c-0.76,0.74-1.57,1.29-2.43,1.66c-0.86,0.37-1.78,0.55-2.76,0.55c-1.73,0-3.09-0.47-4.08-1.41c-0.99-0.94-1.49-2.12-1.49-3.55
			c0-0.95,0.23-1.79,0.68-2.53c0.45-0.74,1.09-1.31,1.9-1.71c0.82-0.39,1.99-0.74,3.53-1.03c2.07-0.39,3.51-0.75,4.31-1.09v-0.44
			c0-0.85-0.21-1.46-0.63-1.82c-0.42-0.36-1.22-0.54-2.38-0.54c-0.79,0-1.41,0.16-1.85,0.47
			C600.81,445.53,600.46,446.08,600.18,446.85z M606.12,450.45c-0.57,0.19-1.47,0.42-2.7,0.68c-1.23,0.26-2.04,0.52-2.42,0.77
			c-0.58,0.41-0.87,0.93-0.87,1.56c0,0.62,0.23,1.16,0.69,1.61c0.46,0.45,1.05,0.68,1.77,0.68c0.8,0,1.56-0.26,2.29-0.79
			c0.54-0.4,0.89-0.89,1.06-1.47c0.12-0.38,0.17-1.1,0.17-2.16V450.45z"/>
		<path class="st3" d="M630.1,458.51h-4.44v-8.56c0-1.81-0.09-2.98-0.28-3.51c-0.19-0.53-0.5-0.94-0.92-1.24
			c-0.43-0.29-0.94-0.44-1.54-0.44c-0.77,0-1.46,0.21-2.07,0.63c-0.61,0.42-1.03,0.98-1.26,1.67c-0.23,0.7-0.34,1.98-0.34,3.85v7.6
			h-4.44v-16.77h4.12v2.46c1.46-1.89,3.31-2.84,5.53-2.84c0.98,0,1.87,0.18,2.68,0.53c0.81,0.35,1.42,0.8,1.84,1.35
			c0.42,0.55,0.7,1.17,0.87,1.86c0.16,0.69,0.24,1.69,0.24,2.98V458.51z"/>
		<path class="st3" d="M632.5,441.74h4.72l4.01,11.91l3.92-11.91h4.59l-5.92,16.14l-1.06,2.92c-0.39,0.98-0.76,1.73-1.11,2.24
			c-0.35,0.52-0.76,0.93-1.22,1.26s-1.02,0.57-1.69,0.75c-0.67,0.18-1.42,0.27-2.27,0.27c-0.85,0-1.69-0.09-2.51-0.27l-0.39-3.47
			c0.69,0.14,1.32,0.21,1.88,0.21c1.03,0,1.79-0.3,2.29-0.91c0.49-0.61,0.87-1.38,1.14-2.31L632.5,441.74z"/>
	</g>
</g>
</svg>
